<?xml version="1.0" encoding="utf-8"?>
<!-- Generator: Adobe Illustrator 27.5.0, SVG Export Plug-In . SVG Version: 6.00 Build 0)  -->
<svg version="1.1" xmlns="http://www.w3.org/2000/svg" xmlns:xlink="http://www.w3.org/1999/xlink" x="0px" y="0px"
	 viewBox="0 0 500 500" style="enable-background:new 0 0 500 500;" xml:space="preserve">
<g id="Floor">
	
		<ellipse id="Floor_00000094601562751247277280000015504765565436870318_" style="fill:#F5F5F5;" cx="243.592" cy="359.343" rx="212.554" ry="126.441"/>
</g>
<g id="Shadows">
	<path id="Shadow_00000146483542651439849530000008797869657359399335_" style="fill:#E0E0E0;" d="M328.357,391.966l-184.27-106.36
		c-3.056-1.765-8.048-1.761-11.103,0l-104.093,59.96c-4.143,2.388-4.148,6.307-0.009,8.696l182.948,105.597
		c2.693,1.555,7.099,1.555,9.795-0.006l106.731-61.477C331.411,396.615,331.414,393.73,328.357,391.966z"/>
	
		<ellipse id="Shadow_00000127021708554281345000000016750357978217172387_" style="fill:#E0E0E0;" cx="387.58" cy="415.648" rx="73.701" ry="40.718"/>
	<path id="Shadow_00000049927624675507809720000011317852715957666485_" style="fill:#E0E0E0;" d="M105.838,421.676
		c12.297,7.18,12.297,18.822,0,26.002c-12.298,7.18-32.237,7.18-44.535,0c-12.298-7.18-12.298-18.821,0.001-26.001
		C73.601,414.496,93.54,414.496,105.838,421.676z"/>
</g>
<g id="Window">
	<g id="Window_00000140700118245959312120000001246415438464525744_">
		<g id="Window_3_">
			<g id="Frame_10_">
				<polygon id="XMLID_5327_" style="fill:#FAFAFA;" points="475.306,231.699 472.781,233.203 386.927,183.635 389.45,182.129 				
					"/>
				<g id="XMLID_1346_">
					<g id="XMLID_1347_">
						<g id="XMLID_5325_">
							<polygon id="XMLID_5326_" style="fill:#FFFFFF;" points="389.45,182.129 472.781,230.234 472.78,90.82 389.449,42.733 
															"/>
						</g>
					</g>
				</g>
				<path id="XMLID_1342_" style="fill:#F0F0F0;" d="M382.162,186.384l95.382,55.069l0-153.382l-95.383-55.068L382.162,186.384z
					 M386.927,41.252L472.78,90.82l0.001,142.383l-85.854-49.568L386.927,41.252z"/>
				<polygon id="XMLID_1341_" style="fill:#E0E0E0;" points="386.927,183.635 389.45,182.129 389.449,42.733 386.927,41.252 				"/>
				<polygon id="XMLID_1340_" style="fill:#FAFAFA;" points="472.781,189.634 472.781,192.596 386.927,143.028 389.45,141.522 				
					"/>
				<polygon id="XMLID_1339_" style="fill:#FAFAFA;" points="472.781,122.982 472.781,125.944 386.927,76.376 389.45,74.87 				"/>
				<polygon id="XMLID_1336_" style="fill:#FAFAFA;" points="382.162,33.002 384.725,31.535 480.108,86.603 477.545,88.07 				"/>
				<polygon id="XMLID_5211_" style="fill:#E0E0E0;" points="480.108,86.603 477.545,88.07 477.545,241.453 480.108,239.985 				"/>
				<polygon id="XMLID_00000158739748085600571230000005167645584019033224_" style="fill:#E0E0E0;" points="436.06,69.619 
					433.497,68.14 433.497,210.532 436.06,209.064 				"/>
			</g>
			<polygon style="fill:#F0F0F0;" points="428.733,65.402 433.497,68.14 433.497,210.532 428.734,207.773 			"/>
			<g>
				<polygon style="fill:#F0F0F0;" points="382.162,73.627 382.162,79.12 477.545,134.188 477.545,128.695 				"/>
				<polygon style="fill:#F0F0F0;" points="382.162,140.266 382.162,145.76 477.545,200.828 477.545,195.335 				"/>
			</g>
			<polygon style="fill:#FAFAFA;" points="433.497,103.263 436.06,101.781 472.781,122.982 472.781,125.944 			"/>
			<polygon style="fill:#FAFAFA;" points="433.497,169.886 436.06,168.403 472.781,189.604 472.781,192.567 			"/>
		</g>
	</g>
</g>
<g id="Pictures">
	<g id="Picture_00000180360932922351709540000011317127132918380478_">
		<g id="Frame_00000003795821283597703960000004223779018878924693_">
			<polygon id="XMLID_00000055704629694200136260000018058638767129634215_" style="fill:#FAFAFA;" points="37.238,119.447 
				39.259,120.652 80.727,96.71 78.707,95.504 			"/>
			<g id="XMLID_00000051342839963190757990000002951794419319981442_">
				<g id="XMLID_00000070095407017761158970000009249094793402551982_">
					<g id="XMLID_00000120538255732332068240000010662439651185172402_">
						<polygon id="XMLID_00000165951670517553041380000011727263414311503745_" style="fill:#FFFFFF;" points="78.707,95.504 
							39.259,118.274 39.26,76.965 78.708,54.209 						"/>
					</g>
				</g>
			</g>
			<path id="XMLID_00000114772623996987261650000014650490902790112910_" style="fill:#F0F0F0;" d="M84.542,46.418L35.446,74.764
				v52.492L84.542,98.91L84.542,46.418z M80.727,96.71l-41.468,23.942l0.001-43.687l41.468-23.942L80.727,96.71z"/>
			<polygon id="XMLID_00000054980867850043395620000006254404052775171743_" style="fill:#E0E0E0;" points="80.727,96.71 
				78.707,95.504 78.708,54.209 80.728,53.023 			"/>
			<polygon id="XMLID_00000030458492234647168900000007864255061664499387_" style="fill:#FAFAFA;" points="84.542,46.418 
				82.49,45.244 33.394,73.589 35.446,74.764 			"/>
			<polygon id="XMLID_00000064348517519314347590000018008787920518882740_" style="fill:#E0E0E0;" points="33.394,73.589 
				35.446,74.764 35.446,127.256 33.394,126.081 			"/>
		</g>
		<g id="Land_00000014595056073939971520000015392864520559793852_">
			<polygon style="fill:#F0F0F0;" points="77.167,94.269 40.8,115.266 40.8,104.768 49.893,83.771 55.556,89.02 53.519,97.82 
				66.077,70.965 77.167,83.771 			"/>
			<path style="fill:#F0F0F0;" d="M55.214,73.633c-1.486,0.858-2.69,2.944-2.69,4.659c0,1.715,1.204,2.411,2.69,1.553
				c1.485-0.858,2.69-2.943,2.69-4.659C57.904,73.47,56.699,72.775,55.214,73.633z"/>
		</g>
	</g>
	<g id="Picture_00000000207928394484413750000006892403135061311638_">
		<g id="Frame_00000014592744305775491950000006534626625448072598_">
			<polygon id="XMLID_00000158022272504785617910000007160154311027522694_" style="fill:#FAFAFA;" points="37.238,199.308 
				39.259,200.512 80.727,176.57 78.707,175.365 			"/>
			<g id="XMLID_00000168080918774636601420000010942108792951596167_">
				<g id="XMLID_00000116918420167470962260000009415238486945161395_">
					<g id="XMLID_00000049195104363904798920000003221236715791196315_">
						<polygon id="XMLID_00000110469897659021231470000006463047543998214301_" style="fill:#FFFFFF;" points="78.707,175.365 
							39.259,198.135 39.26,156.826 78.708,134.07 						"/>
					</g>
				</g>
			</g>
			<path id="XMLID_00000103968893801838718300000001892043865478183069_" style="fill:#F0F0F0;" d="M84.542,126.279l-49.096,28.345
				l0,52.492l49.096-28.346L84.542,126.279z M80.727,176.57l-41.468,23.942l0.001-43.686l41.468-23.942L80.727,176.57z"/>
			<polygon id="XMLID_00000057845620563451364360000011254292058632858811_" style="fill:#E0E0E0;" points="80.727,176.57 
				78.707,175.365 78.708,134.07 80.728,132.884 			"/>
			<polygon id="XMLID_00000142864445204747480800000013139954844110190756_" style="fill:#FAFAFA;" points="84.542,126.279 
				82.49,125.105 33.394,153.45 35.446,154.625 			"/>
			<polygon id="XMLID_00000043457701706962112040000017556466911853913999_" style="fill:#E0E0E0;" points="33.394,153.45 
				35.446,154.625 35.446,207.117 33.394,205.942 			"/>
		</g>
		<g id="Land_00000165922901647203682710000017627099735522476475_">
			<polygon style="fill:#F0F0F0;" points="77.167,174.13 40.8,195.127 40.8,184.628 49.893,163.632 55.556,168.881 53.519,177.681 
				66.077,150.826 77.167,163.632 			"/>
			<path style="fill:#F0F0F0;" d="M55.214,153.493c-1.486,0.858-2.69,2.944-2.69,4.659c0,1.715,1.205,2.411,2.69,1.553
				c1.485-0.858,2.69-2.944,2.69-4.659S56.7,152.636,55.214,153.493z"/>
		</g>
	</g>
</g>
<g id="Device">
	<g id="Mobile_00000178888720203994574030000015960439770342394030_">
		<g id="Mobile_00000151539601316439246860000015004452916415041964_">
			<g>
				<path style="fill:#37474F;" d="M142.25,225.288l187.371,147.185c4.703,3.694,4.164,7.611,3.733,11.124
					c-0.432,3.513-2.389,8.321-6.407,10.64L224.08,453.629c-4.018,2.32-10.035,2.033-13.439-0.641L23.268,305.802
					c-3.404-2.674-3.733-6.899-3.302-10.413c0.432-3.513,1.958-9.033,5.976-11.353l102.868-59.39
					C132.828,222.327,137.508,221.565,142.25,225.288z"/>
				<path style="fill:#263238;" d="M136.748,229.884L30.969,290.956L219.15,438.731l-2.021,16.45
					c-2.431-0.116-4.786-0.857-6.488-2.193L23.268,305.802c-3.404-2.674-3.733-6.899-3.302-10.413
					c0.432-3.513,1.958-9.033,5.976-11.353l102.868-59.39c2.51-1.449,5.538-2.453,8.788-1.682c0,0-0.063,0.509-0.063,0.509
					L136.748,229.884z"/>
			</g>
			<path style="fill:#455A64;" d="M327.782,373.317L140.727,226.382c-2.699-2.12-7.504-2.345-10.687-0.51L29.624,283.851
				c-4.317,2.488-4.862,6.883-1.207,9.754l185.887,146.018c2.378,1.868,6.619,2.07,9.429,0.443l103.165-59.559
				C330.081,378.672,330.48,375.437,327.782,373.317z"/>
			<g>
				<g>
					<path style="fill:#455A64;" d="M79.84,337.68c1.341,1.053,2.245,3.404,2.018,5.249c-0.109,0.891-0.463,1.495-0.95,1.765
						c-0.344,0.19-1.651,0.972-2.009,1.171c-0.52,0.289-1.189,0.196-1.879-0.345L62.125,333.82
						c-1.341-1.053-2.245-3.404-2.018-5.249c0.104-0.85,0.432-1.44,0.885-1.726c0.357-0.225,1.714-1.008,2.07-1.207
						c0.52-0.291,1.192-0.2,1.882,0.344L79.84,337.68z"/>
					<path style="fill:#37474F;" d="M77.84,338.836l-14.894-11.699c-1.341-1.053-2.612-0.411-2.839,1.434
						c-0.227,1.846,0.677,4.196,2.018,5.249l14.895,11.699c1.341,1.054,2.612,0.411,2.839-1.434
						C80.085,342.239,79.182,339.889,77.84,338.836z"/>
				</g>
				<g>
					<path style="fill:#455A64;" d="M53.771,317.205c1.341,1.053,2.245,3.404,2.018,5.249c-0.11,0.891-0.463,1.495-0.951,1.765
						c-0.344,0.19-1.651,0.972-2.009,1.17c-0.52,0.289-1.189,0.196-1.879-0.345l-14.894-11.699
						c-1.341-1.054-2.245-3.403-2.018-5.249c0.104-0.85,0.432-1.44,0.885-1.726c0.357-0.225,1.714-1.008,2.07-1.207
						c0.52-0.291,1.191-0.199,1.882,0.344L53.771,317.205z"/>
					<path style="fill:#37474F;" d="M51.772,318.36l-14.894-11.699c-1.341-1.053-2.612-0.411-2.839,1.434
						c-0.227,1.846,0.676,4.196,2.018,5.25l14.895,11.699c1.341,1.053,2.612,0.411,2.839-1.434
						C54.017,321.763,53.113,319.414,51.772,318.36z"/>
				</g>
			</g>
			<g>
				<path d="M144.129,234.447l174.672,137.209c2.58,2.026,2.206,5.111-0.834,6.859l-93.336,53.889
					c-3.034,1.765-7.596,1.548-10.182-0.483L38.527,293.731c-2.091-1.642-2.255-3.977-0.591-5.738
					c0.135-0.135,0.257-0.269,0.398-0.4c0.306-0.254,0.654-0.497,1.033-0.717l26.253-15.158c0,0,0.764-0.445,1.713-0.987
					c0.942-0.547,2.356-0.482,3.16,0.15c0.798,0.627,2.272,0.67,3.279,0.082l30.597-17.663c1.001-0.58,1.182-1.565,0.384-2.192
					c-0.749-0.588-0.698-1.467,0.081-2.028c0.053-0.039,0.112-0.073,0.171-0.106l25.684-14.824l0.545-0.318
					C135.08,231.614,140.875,231.892,144.129,234.447z"/>
				<path style="fill:#EBEBEB;" d="M69.974,275.106c-0.804-0.632-2.218-0.697-3.16-0.15c-0.948,0.542-1.713,0.987-1.713,0.987
					l-26.253,15.158c-0.379,0.219-0.727,0.463-1.033,0.717c-0.141,0.131-0.263,0.264-0.398,0.4
					c-0.043,0.046-0.071,0.096-0.112,0.143c0.284,0.488,0.689,0.952,1.222,1.37l175.921,138.191
					c2.586,2.031,7.148,2.248,10.182,0.483l93.336-53.889c0.632-0.364,1.142-0.787,1.541-1.245c-0.284-0.494-0.686-0.966-1.226-1.39
					L143.61,238.672c-3.254-2.556-9.049-2.833-12.895-0.615l-0.545,0.319l-25.009,14.434c0,0-0.389,3.203-0.437,3.582
					c-0.052,0.415-0.351,0.829-0.875,1.133l-30.597,17.663C72.246,275.776,70.772,275.733,69.974,275.106z"/>
				<g>
					<g id="XMLID_00000089545630870181537510000003304132294316453767_">
						<path id="XMLID_00000144329850559089176060000008470107802617441924_" style="fill:#455A64;" d="M63.431,289.493
							c-0.038-0.004-0.077-0.024-0.117-0.06l-0.373-0.343l-1.163,0.672c-0.064,0.036-0.122,0.031-0.175-0.018l-0.134-0.123
							c-0.03-0.028-0.05-0.052-0.06-0.071c-0.008-0.019-0.015-0.046-0.02-0.079l-0.098-1.942c-0.002-0.035,0.002-0.061,0.01-0.079
							c0.008-0.018,0.03-0.038,0.067-0.059l0.162-0.093c0.049-0.029,0.093-0.04,0.136-0.035c0.041,0.005,0.083,0.027,0.124,0.065
							l1.302,1.197l0.257-0.148c0.049-0.028,0.092-0.04,0.13-0.034c0.039,0.006,0.079,0.028,0.12,0.066l0.089,0.082
							c0.039,0.036,0.057,0.067,0.055,0.095c-0.002,0.027-0.027,0.055-0.076,0.084l-0.257,0.148l0.373,0.343
							c0.039,0.036,0.058,0.069,0.054,0.096c-0.004,0.028-0.031,0.057-0.082,0.087l-0.196,0.112
							C63.513,289.485,63.469,289.497,63.431,289.493z M62.701,288.754l-0.929-0.854l0.084,1.341L62.701,288.754z"/>
						<path id="XMLID_00000099649859637888455230000009807619264835645585_" style="fill:#455A64;" d="M64.588,288.487
							c-0.429-0.053-0.83-0.251-1.202-0.593c-0.371-0.341-0.543-0.671-0.516-0.988c0.027-0.318,0.248-0.596,0.662-0.835
							c0.166-0.096,0.337-0.172,0.513-0.227c0.174-0.055,0.338-0.085,0.49-0.088c0.035-0.001,0.06,0.006,0.076,0.02
							c0.01,0.01,0.019,0.025,0.024,0.044l0.057,0.212c0.005,0.027,0.001,0.044-0.014,0.053c-0.008,0.004-0.029,0.008-0.064,0.012
							c-0.25,0.02-0.49,0.096-0.719,0.229c-0.279,0.161-0.429,0.352-0.447,0.573c-0.017,0.222,0.116,0.463,0.401,0.726
							c0.288,0.265,0.579,0.417,0.873,0.456c0.293,0.039,0.575-0.019,0.844-0.174c0.098-0.056,0.186-0.118,0.265-0.185
							c0.078-0.067,0.134-0.129,0.168-0.187l-0.605-0.556l-0.485,0.28c-0.049,0.029-0.092,0.04-0.13,0.034
							c-0.039-0.005-0.078-0.027-0.12-0.065l-0.085-0.078c-0.041-0.038-0.06-0.07-0.056-0.097c0.003-0.026,0.029-0.053,0.078-0.082
							l0.775-0.447c0.054-0.031,0.104-0.042,0.15-0.035c0.046,0.007,0.093,0.034,0.141,0.078l0.864,0.794
							c0.033,0.03,0.054,0.055,0.062,0.074c0.01,0.019,0.008,0.042-0.003,0.068c-0.098,0.246-0.342,0.481-0.729,0.704
							C65.437,288.447,65.016,288.54,64.588,288.487z"/>
					</g>
					<g id="XMLID_00000106110799517316609000000015428883268583563430_">
						<g id="XMLID_00000005230899449171784910000010888297182548925612_">
							<path id="XMLID_282_" style="fill:#455A64;" d="M74.259,282.698c0.288,0.264,0.219,0.654-0.154,0.869
								s-0.909,0.176-1.196-0.089c-0.288-0.265-0.219-0.654,0.154-0.869C73.435,282.394,73.971,282.434,74.259,282.698z"/>
						</g>
						<g id="XMLID_00000036967167100679186880000012889689542212253880_">
							<g id="XMLID_00000140722688049440867980000001969198738168053941_">
								<path id="XMLID_00000098940313800283665940000014360968961069398442_" style="fill:#455A64;" d="M72.209,281.825
									c-0.68,0.393-0.977,1.005-0.844,1.575c0.027,0.116,0.167,0.198,0.33,0.196l0.002,0c0.205-0.003,0.366-0.138,0.331-0.284
									c-0.098-0.403,0.113-0.835,0.591-1.111c0.479-0.277,1.105-0.327,1.619-0.165c0.187,0.059,0.406-0.024,0.457-0.17l0-0.001
									c0.04-0.115-0.039-0.232-0.187-0.278C73.776,281.362,72.89,281.432,72.209,281.825z"/>
							</g>
						</g>
						<g id="XMLID_00000117647599214279521290000017163171145701177789_">
							<g id="XMLID_00000103976778041524487880000012889205874980555183_">
								<path id="XMLID_00000044158361803627112380000010641639640452523189_" style="fill:#455A64;" d="M71.375,281.058
									c-1.012,0.584-1.494,1.473-1.39,2.332c0.015,0.126,0.156,0.223,0.331,0.221h0.003c0.199-0.002,0.353-0.129,0.334-0.272
									c-0.09-0.701,0.303-1.428,1.13-1.905c0.827-0.477,1.89-0.591,2.807-0.367c0.187,0.046,0.391-0.034,0.44-0.174l0,0
									c0.043-0.124-0.054-0.246-0.219-0.286C73.691,280.334,72.389,280.473,71.375,281.058z"/>
							</g>
						</g>
					</g>
					<g>
						<polygon style="fill:#455A64;" points="50.853,297.17 50.134,296.509 51.375,295.792 52.094,296.453 						"/>
						<polygon style="fill:#455A64;" points="52.715,296.094 51.279,294.773 52.52,294.056 53.957,295.377 						"/>
						<polygon style="fill:#455A64;" points="54.579,295.019 52.423,293.037 53.665,292.32 55.82,294.302 						"/>
						<polygon style="fill:#455A64;" points="56.441,293.943 53.567,291.301 54.809,290.584 57.683,293.226 						"/>
					</g>
					<g id="XMLID_00000176040126186343143030000016368423687334307482_">
						<path id="XMLID_00000078744812566944909510000008204666763462386869_" style="fill:#455A64;" d="M132.07,246.823
							c-0.266-0.048-0.502-0.021-0.669,0.075l-4.643,2.673c-0.301,0.174-0.295,0.532,0.014,0.816l1.306,1.201
							c0.172,0.158,0.413,0.272,0.677,0.32c0.113,0.021,0.223,0.027,0.326,0.02c0.134-0.009,0.249-0.041,0.343-0.096l4.644-2.673
							c0.301-0.174,0.295-0.532-0.015-0.816l-1.306-1.201C132.575,246.984,132.334,246.871,132.07,246.823z M128.751,251.713
							c-0.096-0.017-0.201-0.073-0.287-0.152l-1.306-1.201c-0.228-0.209-0.233-0.494-0.011-0.621l4.643-2.673
							c0.054-0.031,0.117-0.05,0.18-0.055c0.035-0.002,0.069,0,0.104,0.006c0.096,0.017,0.201,0.073,0.287,0.152l1.306,1.201
							c0.228,0.21,0.234,0.494,0.012,0.622l-4.644,2.673C128.951,251.714,128.849,251.731,128.751,251.713z"/>
						<g id="XMLID_00000012465412566432427730000004921700355747278220_">
							<path style="fill:#455A64;" d="M128.253,249.439l1.545,1.421l-0.73,0.419c-0.063,0.036-0.188,0.04-0.223,0.007l-1.149-1.056
								c-0.165-0.152-0.169-0.368-0.011-0.462L128.253,249.439z"/>
							<polygon style="fill:#455A64;" points="128.595,249.247 129.464,248.743 131.01,250.164 130.136,250.664 							"/>
							<polygon style="fill:#455A64;" points="129.806,248.552 130.676,248.047 132.225,249.472 131.352,249.973 							"/>
							<path style="fill:#455A64;" d="M131.989,247.446l1.113,1.024c0.205,0.188,0.11,0.434-0.246,0.638l-0.294,0.169l-1.545-1.421
								l0.693-0.4C131.792,247.411,131.944,247.405,131.989,247.446z"/>
						</g>
						<g id="XMLID_00000002349125989653632450000010889353128513585586_">
							<path id="XMLID_00000029746352791889975320000009501272631623692972_" style="fill:#455A64;" d="M132.928,247.051
								c0.127-0.075,0.448,0.064,0.716,0.31l0.243,0.223c0.268,0.247,0.385,0.512,0.262,0.593l-0.224,0.147l-1.228-1.138
								C132.697,247.186,132.801,247.126,132.928,247.051z"/>
						</g>
					</g>
					<polygon style="fill:#455A64;" points="120.047,254.746 123.855,251.497 125.002,254.633 122.931,253.714 					"/>
				</g>
				<g>
					<path style="fill:#263238;" d="M73.539,264.45l14.025-8.097c0.837-0.483,2.054-0.451,2.719,0.071
						c0.665,0.522,0.526,1.338-0.311,1.821l-14.025,8.098c-0.837,0.483-2.054,0.451-2.719-0.071
						C72.563,265.748,72.703,264.933,73.539,264.45z"/>
					<g>
						<path style="fill:#263238;" d="M94.273,251.814c0.943-0.544,2.354-0.477,3.153,0.15c0.799,0.627,0.682,1.577-0.261,2.121
							c-0.942,0.544-2.354,0.477-3.153-0.15C93.213,253.308,93.33,252.358,94.273,251.814z"/>
					</g>
				</g>
				<path style="fill:#455A64;" d="M154.983,309.232l-0.016,0.009l-1.657-1.301c-0.59-0.464-1.56-0.557-2.163-0.209l-2.031,1.173
					c-0.603,0.348-0.614,1.008-0.024,1.471l1.657,1.301l-0.016,0.009c-0.461,0.266-0.469,0.769-0.018,1.123l3.341,2.624
					c0.451,0.354,1.191,0.426,1.652,0.16l4.249-2.453c0.461-0.266,0.469-0.769,0.018-1.123l-3.341-2.624
					C156.183,309.037,155.444,308.966,154.983,309.232z M149.564,310.103c-0.336-0.263-0.33-0.639,0.013-0.837l2.031-1.173
					c0.343-0.198,0.895-0.145,1.23,0.119l1.656,1.301l-3.275,1.891L149.564,310.103z"/>
				<g>
					<path style="fill:#455A64;" d="M158.116,345.882c0.359,0.283,0.326,0.546-0.097,0.79l-0.549,0.317
						c-0.423,0.244-0.813,0.227-1.174-0.056l-14.58-11.453l-1.796,5.636c-0.132,0.367-0.464,0.513-0.991,0.439l-0.662-0.085
						c-0.245-0.036-0.426-0.114-0.547-0.234c-0.119-0.12-0.153-0.263-0.095-0.428l2.139-6.704c0.053-0.141,0.131-0.252,0.229-0.331
						c0.1-0.081,0.217-0.159,0.351-0.236l0.549-0.317c0.423-0.244,0.814-0.225,1.174,0.056L158.116,345.882z"/>
					<path style="fill:#455A64;" d="M150.501,334.275c-0.536-0.446-0.979-0.98-1.333-1.598c-0.353-0.618-0.524-1.271-0.51-1.956
						c0.012-0.686,0.254-1.38,0.727-2.086c0.47-0.706,1.256-1.374,2.353-2.008c1.098-0.634,2.17-1.063,3.216-1.292
						c1.049-0.225,2.046-0.3,2.994-0.226c0.947,0.076,1.833,0.286,2.659,0.633c0.824,0.345,1.554,0.769,2.191,1.268
						c1.011,0.794,1.648,1.648,1.911,2.565c0.264,0.915,0.282,2.005,0.055,3.269l-0.933,8.475l9.674-5.584
						c0.442-0.256,0.852-0.237,1.226,0.059l0.367,0.288c0.36,0.281,0.317,0.55-0.125,0.806l-11.84,6.836
						c-0.424,0.244-0.814,0.225-1.174-0.056l-0.367-0.288c-0.163-0.129-0.269-0.284-0.319-0.468
						c-0.05-0.181-0.045-0.434,0.013-0.757l1.142-9.294c0.114-0.646,0.174-1.202,0.179-1.671c0.004-0.469-0.051-0.887-0.168-1.254
						c-0.115-0.366-0.293-0.697-0.535-0.991c-0.242-0.295-0.55-0.589-0.924-0.884c-1.094-0.858-2.316-1.321-3.666-1.385
						c-1.352-0.063-2.72,0.304-4.107,1.104c-1.328,0.766-2.046,1.62-2.152,2.559c-0.107,0.939,0.292,1.87,1.199,2.792
						c0.157,0.177,0.21,0.34,0.155,0.496c-0.054,0.152-0.141,0.262-0.256,0.329l-0.577,0.333
						C151.167,334.522,150.81,334.517,150.501,334.275z"/>
					<path style="fill:#455A64;" d="M172.885,325.686c0.163,0.127,0.231,0.267,0.202,0.416c-0.027,0.148-0.137,0.279-0.329,0.39
						l-1.386,0.801c-0.424,0.244-0.814,0.225-1.174-0.056l-1.174-0.923c-0.164-0.129-0.24-0.268-0.23-0.417
						c0.009-0.151,0.109-0.282,0.301-0.392l1.386-0.801c0.193-0.112,0.406-0.161,0.638-0.15c0.231,0.011,0.427,0.08,0.591,0.209
						L172.885,325.686z M181.448,332.411c0.164,0.129,0.23,0.267,0.203,0.417c-0.028,0.148-0.137,0.279-0.33,0.389l-1.386,0.801
						c-0.424,0.244-0.815,0.227-1.174-0.056l-1.174-0.921c-0.163-0.129-0.241-0.268-0.231-0.419c0.009-0.149,0.109-0.28,0.303-0.392
						l1.386-0.801c0.192-0.11,0.404-0.16,0.636-0.148c0.231,0.011,0.43,0.08,0.592,0.209L181.448,332.411z"/>
					<path style="fill:#455A64;" d="M180.626,310.281c0.443-0.256,0.852-0.236,1.228,0.059l0.366,0.288
						c0.099,0.076,0.159,0.157,0.185,0.243c0.024,0.085,0.042,0.171,0.05,0.255l-0.05,8.264l0.577-0.333
						c0.981-0.567,1.98-1.009,2.992-1.328c1.014-0.317,2.011-0.487,2.988-0.507c0.977-0.02,1.931,0.12,2.861,0.417
						c0.929,0.296,1.8,0.766,2.615,1.406c0.817,0.64,1.364,1.307,1.646,2.001c0.283,0.693,0.33,1.387,0.146,2.082
						c-0.184,0.696-0.586,1.377-1.204,2.045c-0.618,0.668-1.418,1.286-2.398,1.853c-1.079,0.622-2.161,1.086-3.244,1.389
						c-1.083,0.303-2.114,0.471-3.091,0.502c-0.98,0.032-1.878-0.056-2.692-0.264c-0.817-0.207-1.502-0.516-2.06-0.928
						c-0.146-0.115-0.203-0.238-0.169-0.369c0.034-0.131,0.137-0.247,0.311-0.346l0.403-0.234c0.155-0.089,0.338-0.148,0.546-0.182
						c0.21-0.032,0.477,0.026,0.797,0.173c0.693,0.334,1.382,0.53,2.073,0.586c0.692,0.059,1.371,0.027,2.038-0.091
						c0.667-0.118,1.307-0.305,1.919-0.558c0.612-0.254,1.18-0.53,1.7-0.831c0.75-0.433,1.36-0.886,1.829-1.357
						c0.47-0.471,0.778-0.956,0.929-1.454c0.151-0.497,0.124-0.998-0.084-1.503c-0.206-0.503-0.611-0.991-1.215-1.465
						c-1.207-0.949-2.499-1.379-3.878-1.295c-1.378,0.086-2.81,0.554-4.291,1.41l-2.542,1.467c-0.424,0.244-0.814,0.225-1.173-0.056
						l-0.367-0.288c-0.131-0.103-0.217-0.202-0.259-0.301c-0.04-0.099-0.064-0.201-0.068-0.311l0.004-8.103l-8.721,5.035
						c-0.423,0.244-0.814,0.225-1.174-0.056l-0.367-0.288c-0.374-0.295-0.35-0.564,0.073-0.809L180.626,310.281z"/>
					<path style="fill:#455A64;" d="M208.794,316.624c0.358,0.283,0.326,0.546-0.097,0.79l-0.549,0.317
						c-0.424,0.244-0.814,0.225-1.174-0.056l-14.581-11.453l-1.794,5.635c-0.132,0.367-0.464,0.514-0.992,0.441l-0.662-0.085
						c-0.245-0.036-0.427-0.114-0.548-0.236c-0.118-0.118-0.152-0.262-0.094-0.427l2.139-6.704c0.053-0.141,0.129-0.252,0.229-0.331
						c0.1-0.081,0.217-0.159,0.351-0.236l0.549-0.317c0.423-0.244,0.814-0.225,1.173,0.056L208.794,316.624z"/>
				</g>
				<path style="fill:#FFFFFF;" d="M159.59,367.056l74.044-42.75c1.993-1.151,4.979-1.009,6.668,0.318l16.835,13.223
					c1.689,1.327,1.442,3.335-0.551,4.486l-74.045,42.75c-1.993,1.151-4.979,1.009-6.668-0.318l-16.834-13.223
					C157.35,370.216,157.596,368.207,159.59,367.056z"/>
				<path style="fill:#FFFFFF;" d="M189.924,390.888l74.044-42.75c1.993-1.151,4.979-1.008,6.668,0.318l16.835,13.223
					c1.689,1.327,1.442,3.335-0.551,4.486l-74.045,42.75c-1.993,1.151-4.979,1.008-6.668-0.318l-16.834-13.223
					C187.684,394.047,187.93,392.039,189.924,390.888z"/>
				<path style="fill:#E0E0E0;" d="M220.028,392.786c-0.011-0.001-0.023-0.001-0.036,0c-1.799,0.07-3.557-0.336-4.722-1.251
					l-2.163-1.699c-2.467-1.938-6.828-2.146-9.74-0.465h0c-2.912,1.681-3.272,4.615-0.805,6.553l1.933,1.518
					c1.215,0.955,1.688,2.232,1.348,3.478l0.397,0.91c0.622,0.488,1.72,0.54,2.454,0.117l12.315-7.11
					c0.734-0.423,0.825-1.163,0.203-1.651C220.903,392.942,220.473,392.807,220.028,392.786z M217.848,400.745
					c1.398-0.807,1.571-2.216,0.386-3.146l-5.063,2.923C214.356,401.452,216.45,401.552,217.848,400.745z"/>
				<path style="fill:#E0E0E0;" d="M189.743,368.393c-0.011-0.001-0.023-0.001-0.036,0c-1.799,0.07-3.557-0.336-4.722-1.251
					l-2.162-1.698c-2.467-1.938-6.828-2.146-9.74-0.465l0,0c-2.912,1.681-3.272,4.615-0.805,6.553l1.933,1.518
					c1.215,0.955,1.688,2.232,1.348,3.478l0.397,0.91c0.622,0.488,1.72,0.54,2.454,0.117l12.315-7.11
					c0.733-0.423,0.825-1.163,0.203-1.651C190.618,368.55,190.188,368.414,189.743,368.393z M187.563,376.352
					c1.398-0.807,1.571-2.216,0.386-3.146l-5.063,2.923C184.071,377.059,186.165,377.159,187.563,376.352z"/>
			</g>
		</g>
		<g id="Shine_00000129188335560581890700000008821331715545529270_" style="opacity:0.3;">
			<polygon style="fill:#FFFFFF;" points="215.923,290.838 193.616,273.317 157.949,387.531 180.255,405.052 			"/>
			<path style="fill:#FFFFFF;" d="M283.272,348.38l-37.807-29.698L210.959,429.18l3.49,2.742c2.586,2.031,7.148,2.248,10.182,0.483
				l39.53-22.823L283.272,348.38z"/>
			<path style="fill:#FFFFFF;" d="M137.652,371.589l35.667-114.214l-29.19-22.928c-3.254-2.556-9.049-2.833-12.895-0.615
				l-0.545,0.318l-15.473,8.93l-27.807,89.044L137.652,371.589z"/>
		</g>
	</g>
</g>
<g id="Plant">
	<g id="Plant_00000047051518312472713190000016841063770749161355_">
		<g id="Pot_00000035510130896100766870000010455454190886324891_">
			<path style="fill:#37474F;" d="M66.962,436.192c-8.885-9.168-14.104-32.336-5.438-39.608h44.096
				c8.664,7.27,3.451,30.425-5.43,39.599c-0.076,0.086-0.163,0.168-0.243,0.253c-0.102,0.102-0.204,0.204-0.306,0.303
				c-0.251,0.246-0.517,0.486-0.803,0.722c-0.07,0.059-0.142,0.112-0.213,0.169c-0.218,0.172-0.432,0.346-0.67,0.512
				c-0.379,0.272-0.761,0.525-1.149,0.743c-7.309,4.267-19.159,4.267-26.467,0l-0.001,0l-0.001,0
				c-0.39-0.219-0.775-0.474-1.156-0.748c-0.221-0.155-0.421-0.317-0.624-0.477c-0.088-0.07-0.175-0.135-0.262-0.208
				c-0.276-0.228-0.532-0.46-0.775-0.697c-0.118-0.113-0.236-0.231-0.353-0.349C67.1,436.333,67.026,436.265,66.962,436.192z"/>
			<path style="fill:#455A64;" d="M101.79,393.656c10.061,5.874,10.061,15.398,0,21.272c-10.062,5.874-26.374,5.874-36.435,0
				c-10.061-5.874-10.061-15.398,0.001-21.272C75.417,387.781,91.729,387.781,101.79,393.656z"/>
			<path style="fill:#263238;" d="M96.951,396.481c7.389,4.314,7.389,11.308,0,15.622c-7.388,4.314-19.368,4.314-26.757,0
				c-7.388-4.313-7.388-11.308,0.001-15.622C77.583,392.167,89.563,392.167,96.951,396.481z"/>
			<path style="fill:#FFFFFF;" d="M70.195,403.895c7.388-4.314,19.368-4.314,26.756,0c2.052,1.198,3.513,2.607,4.426,4.104
				c-0.913,1.497-2.374,2.906-4.426,4.104c-7.388,4.314-19.368,4.314-26.756,0c-2.053-1.198-3.514-2.607-4.426-4.104
				C66.681,406.502,68.142,405.093,70.195,403.895z"/>
		</g>
		<g>
			<g>
				<path style="fill:#BA68C8;" d="M77.536,361.505c-2.975,3.763-11.918,5.417-16.374-3.795c-4.18-8.641-8.603-16.795-9.93-19.983
					c-1.326-3.187,1.824-4.512,1.824-4.512s-0.116-4.913,8.431-2.23c8.459,2.655,14.781,7.271,19.017,15.134
					C84.679,353.871,83.004,359.988,77.536,361.505z"/>
			</g>
			<g style="opacity:0.5;">
				<path style="fill:#FFFFFF;" d="M77.536,361.505c-2.975,3.763-11.918,5.417-16.374-3.795c-4.18-8.641-8.603-16.795-9.93-19.983
					c-1.326-3.187,1.824-4.512,1.824-4.512s-0.116-4.913,8.431-2.23c8.459,2.655,14.781,7.271,19.017,15.134
					C84.679,353.871,83.004,359.988,77.536,361.505z"/>
			</g>
			<g>
				<path style="fill:#BA68C8;" d="M82.084,373.788c-0.283-1.65-0.63-3.29-1.097-4.899c-0.928-3.198-2.099-6.315-3.479-9.345
					c-2.812-6.174-6.515-11.886-10.964-17.007c-2.501-2.879-5.205-5.629-8.206-7.992c-0.091-0.071-0.142,0.123-0.081,0.18
					c4.999,4.619,9.465,9.654,13.076,15.441c3.514,5.631,6.308,11.667,8.257,18.013c0.544,1.773,1.071,3.557,1.542,5.352
					c0.478,1.823,0.812,3.678,1.265,5.506c0.045,0.183,0.341,0.274,0.337,0.02C82.705,377.294,82.381,375.521,82.084,373.788z"/>
				<path style="opacity:0.3;" d="M82.084,373.788c-0.283-1.65-0.63-3.29-1.097-4.899c-0.928-3.198-2.099-6.315-3.479-9.345
					c-2.812-6.174-6.515-11.886-10.964-17.007c-2.501-2.879-5.205-5.629-8.206-7.992c-0.091-0.071-0.142,0.123-0.081,0.18
					c4.999,4.619,9.465,9.654,13.076,15.441c3.514,5.631,6.308,11.667,8.257,18.013c0.544,1.773,1.071,3.557,1.542,5.352
					c0.478,1.823,0.812,3.678,1.265,5.506c0.045,0.183,0.341,0.274,0.337,0.02C82.705,377.294,82.381,375.521,82.084,373.788z"/>
			</g>
			<g>
				<path style="fill:#BA68C8;" d="M87.233,354.905c-7.759,2.399-13.524-3.656-11.529-13.155
					c1.995-9.499,11.972-20.042,15.741-17.209c2.353-2.353,7.538-1.508,9.977,6.205C103.861,338.459,101.644,358.27,87.233,354.905z
					"/>
			</g>
			<g style="opacity:0.3;">
				<path style="fill:#FFFFFF;" d="M87.233,354.905c-7.759,2.399-13.524-3.656-11.529-13.155
					c1.995-9.499,11.972-20.042,15.741-17.209c2.353-2.353,7.538-1.508,9.977,6.205C103.861,338.459,101.644,358.27,87.233,354.905z
					"/>
			</g>
			<g>
				<path style="fill:#BA68C8;" d="M91.784,330.319c-2.31,5.453-3.821,11.306-5.158,17.064c-1.368,5.888-2.276,11.871-2.996,17.87
					c-1.392,11.605-1.63,10.962-1.555,22.638c0.021,3.231,0.068,6.462,0.129,9.693c0.063,3.323,0.01,6.689,0.296,10
					c0.11,1.27,1.915,0.932,1.938-0.232c0.114-5.817-0.205-11.659-0.264-17.478c-0.058-5.752-0.039,0.874,0.108-4.876
					c0.298-11.709,1.153-23.422,3.141-34.974c0.554-3.219,1.167-6.434,1.918-9.614c0.79-3.346,1.758-6.644,2.637-9.966
					C92.012,330.314,91.86,330.141,91.784,330.319z"/>
				<path style="opacity:0.3;" d="M91.784,330.319c-2.31,5.453-3.821,11.306-5.158,17.064c-1.368,5.888-2.276,11.871-2.996,17.87
					c-1.392,11.605-1.63,10.962-1.555,22.638c0.021,3.231,0.068,6.462,0.129,9.693c0.063,3.323,0.01,6.689,0.296,10
					c0.11,1.27,1.915,0.932,1.938-0.232c0.114-5.817-0.205-11.659-0.264-17.478c-0.058-5.752-0.039,0.874,0.108-4.876
					c0.298-11.709,1.153-23.422,3.141-34.974c0.554-3.219,1.167-6.434,1.918-9.614c0.79-3.346,1.758-6.644,2.637-9.966
					C92.012,330.314,91.86,330.141,91.784,330.319z"/>
			</g>
			<g>
				<path style="fill:#BA68C8;" d="M69.274,380.577c-0.995,5.024-7.877,8.646-15.828,5.355c-7.951-3.29-23.629-23.955-16.469-26.232
					c-0.391-3.752,21.269-6.833,31.982,6.372C76.748,375.672,69.274,380.577,69.274,380.577z"/>
			</g>
			<g style="opacity:0.7;">
				<path style="fill:#FFFFFF;" d="M69.274,380.577c-0.995,5.024-7.877,8.646-15.828,5.355c-7.951-3.29-23.629-23.955-16.469-26.232
					c-0.391-3.752,21.269-6.833,31.982,6.372C76.748,375.672,69.274,380.577,69.274,380.577z"/>
			</g>
			<g>
				<path style="fill:#BA68C8;" d="M80.64,388.034c-0.985-1.27-2.089-2.424-3.229-3.553c-2.323-2.299-4.758-4.472-7.299-6.528
					c-5.195-4.203-10.843-7.72-16.773-10.784c-3.283-1.697-6.649-3.34-10.126-4.604c-0.096-0.035-0.059,0.15,0.001,0.178
					c2.893,1.367,5.791,2.695,8.589,4.257c2.896,1.617,5.698,3.416,8.418,5.314c5.238,3.653,10.202,7.692,14.806,12.117
					c1.307,1.256,2.552,2.577,3.872,3.82c1.371,1.29,2.846,2.479,4.159,3.829c0.19,0.197,0.533,0.109,0.326-0.177
					C82.456,390.624,81.612,389.288,80.64,388.034z"/>
				<path style="opacity:0.3;" d="M80.64,388.034c-0.985-1.27-2.089-2.424-3.229-3.553c-2.323-2.299-4.758-4.472-7.299-6.528
					c-5.195-4.203-10.843-7.72-16.773-10.784c-3.283-1.697-6.649-3.34-10.126-4.604c-0.096-0.035-0.059,0.15,0.001,0.178
					c2.893,1.367,5.791,2.695,8.589,4.257c2.896,1.617,5.698,3.416,8.418,5.314c5.238,3.653,10.202,7.692,14.806,12.117
					c1.307,1.256,2.552,2.577,3.872,3.82c1.371,1.29,2.846,2.479,4.159,3.829c0.19,0.197,0.533,0.109,0.326-0.177
					C82.456,390.624,81.612,389.288,80.64,388.034z"/>
			</g>
			<path style="fill:#BA68C8;" d="M113.285,374.521c-0.131-2.831-14.386-2.679-21.066,2.69c-6.681,5.369-7.472,10.642-3.31,12.474
				c-0.729,5.974,8.701,9.907,17.142,2.439C114.491,384.656,116.332,375.109,113.285,374.521z"/>
			<path style="opacity:0.3;fill:#FFFFFF;" d="M113.285,374.521c-0.131-2.831-14.386-2.679-21.066,2.69
				c-6.681,5.369-7.472,10.642-3.31,12.474c-0.729,5.974,8.701,9.907,17.142,2.439C114.491,384.656,116.332,375.109,113.285,374.521
				z"/>
			<g>
				<path style="fill:#BA68C8;" d="M99.241,381.996c-3.253,1.495-6.223,3.33-8.918,5.702c-2.678,2.357-4.95,5.103-6.825,8.135
					c-0.214,0.346,0.325,1.016,0.557,0.64c3.663-5.942,9.029-11.082,15.193-14.384C99.286,382.068,99.303,381.968,99.241,381.996z"
					/>
				<path style="opacity:0.3;" d="M99.241,381.996c-3.253,1.495-6.223,3.33-8.918,5.702c-2.678,2.357-4.95,5.103-6.825,8.135
					c-0.214,0.346,0.325,1.016,0.557,0.64c3.663-5.942,9.029-11.082,15.193-14.384C99.286,382.068,99.303,381.968,99.241,381.996z"
					/>
			</g>
			<g>
				<path style="fill:#BA68C8;" d="M89.763,398.869c-4.827,4.742,0.509,10.617,8.335,13.523c7.826,2.906,16.487,0.943,20.264-0.941
					c3.777-1.884,4.552-2.829,4.552-2.829s-1.845-6.224-3.994-9.582c-3.023-4.723-9.719-10.353-19.743-9.071
					C89.153,391.251,88.337,395.418,89.763,398.869z"/>
			</g>
			<g style="opacity:0.5;">
				<path style="fill:#FFFFFF;" d="M89.763,398.869c-4.827,4.742,0.509,10.617,8.335,13.523c7.826,2.906,16.487,0.943,20.264-0.941
					c3.777-1.884,4.552-2.829,4.552-2.829s-1.845-6.224-3.994-9.582c-3.023-4.723-9.719-10.353-19.743-9.071
					C89.153,391.251,88.337,395.418,89.763,398.869z"/>
			</g>
			<g>
				<path style="fill:#BA68C8;" d="M110.022,402.43c-3.926-1.891-7.965-3.715-12.269-4.543c-4.198-0.808-9.364-0.843-12.763,2.146
					c-1.317,1.158-3.07,3.671-1.997,5.452c0.106,0.177,0.635,0.506,0.754,0.153c0.372-1.111,0.487-2.268,1.08-3.298
					c0.617-1.07,1.555-1.87,2.625-2.466c2.629-1.464,5.93-1.793,8.891-1.509c4.779,0.458,9.274,2.375,13.672,4.176
					C110.062,402.56,110.061,402.449,110.022,402.43z"/>
				<path style="opacity:0.3;" d="M110.022,402.43c-3.926-1.891-7.965-3.715-12.269-4.543c-4.198-0.808-9.364-0.843-12.763,2.146
					c-1.317,1.158-3.07,3.671-1.997,5.452c0.106,0.177,0.635,0.506,0.754,0.153c0.372-1.111,0.487-2.268,1.08-3.298
					c0.617-1.07,1.555-1.87,2.625-2.466c2.629-1.464,5.93-1.793,8.891-1.509c4.779,0.458,9.274,2.375,13.672,4.176
					C110.062,402.56,110.061,402.449,110.022,402.43z"/>
			</g>
			<g>
				<path style="fill:#BA68C8;" d="M91.087,368.994c-1.207,4.241,4.205,8.2,10.939,5.932c6.733-2.268,13.726-4.372,19.467-4.443
					c5.74-0.07,9.378-3.847,8.196-6.396c-1.182-2.549-2.574-8.592-17.198-10.319c-14.625-1.727-21.221,3.435-24.275,7.473
					C85.162,365.28,88.649,369.703,91.087,368.994z"/>
			</g>
			<g style="opacity:0.7;">
				<path style="fill:#FFFFFF;" d="M91.087,368.994c-1.207,4.241,4.205,8.2,10.939,5.932c6.733-2.268,13.726-4.372,19.467-4.443
					c5.74-0.07,9.378-3.847,8.196-6.396c-1.182-2.549-2.574-8.592-17.198-10.319c-14.625-1.727-21.221,3.435-24.275,7.473
					C85.162,365.28,88.649,369.703,91.087,368.994z"/>
			</g>
			<g>
				<path style="fill:#BA68C8;" d="M118.26,360.081c-1.51-0.4-3.164-0.446-4.719-0.432c-1.526,0.014-3.053,0.126-4.56,0.374
					c-2.967,0.488-5.85,1.456-8.593,2.673c-5.14,2.28-10.241,5.256-13.582,9.886c-1.762,2.442-3.293,5.216-4.304,8.057
					c-0.194,0.546,0.864,0.854,1.104,0.365c1.168-2.383,2.179-4.789,3.655-7.012c1.506-2.268,3.368-4.272,5.602-5.836
					c4.626-3.238,9.987-5.87,15.514-7.099c1.628-0.362,3.283-0.639,4.95-0.729c1.676-0.09,3.303,0.097,4.971,0.187
					C118.52,360.527,118.416,360.122,118.26,360.081z"/>
				<path style="opacity:0.3;" d="M118.26,360.081c-1.51-0.4-3.164-0.446-4.719-0.432c-1.526,0.014-3.053,0.126-4.56,0.374
					c-2.967,0.488-5.85,1.456-8.593,2.673c-5.14,2.28-10.241,5.256-13.582,9.886c-1.762,2.442-3.293,5.216-4.304,8.057
					c-0.194,0.546,0.864,0.854,1.104,0.365c1.168-2.383,2.179-4.789,3.655-7.012c1.506-2.268,3.368-4.272,5.602-5.836
					c4.626-3.238,9.987-5.87,15.514-7.099c1.628-0.362,3.283-0.639,4.95-0.729c1.676-0.09,3.303,0.097,4.971,0.187
					C118.52,360.527,118.416,360.122,118.26,360.081z"/>
			</g>
			<path style="fill:#BA68C8;" d="M79.095,392.9c-1.142-4.362-6.67-6.809-13.896-7.349c-7.226-0.54-14.193,2.761-17.973,9.224
				c-3.78,6.464-5.349,11.608-3.052,12.453c2.298,0.844,12.005,2.189,18.274,2.746c6.269,0.556,14.093-0.571,19.204-5.334
				C86.762,399.877,85.077,393.903,79.095,392.9z"/>
			<path style="opacity:0.3;fill:#FFFFFF;" d="M79.095,392.9c-1.142-4.362-6.67-6.809-13.896-7.349
				c-7.226-0.54-14.193,2.761-17.973,9.224c-3.78,6.464-5.349,11.608-3.052,12.453c2.298,0.844,12.005,2.189,18.274,2.746
				c6.269,0.556,14.093-0.571,19.204-5.334C86.762,399.877,85.077,393.903,79.095,392.9z"/>
			<g>
				<path style="fill:#BA68C8;" d="M79.365,392.323c-2.454-0.79-5.274-0.651-7.803-0.364c-2.51,0.285-4.98,0.875-7.367,1.697
					c-2.523,0.869-4.957,2-7.296,3.281c-1.224,0.671-2.426,1.382-3.603,2.131c-1.095,0.698-2.249,1.381-3.232,2.233
					c-0.038,0.033-0.031,0.185,0.04,0.153c1.187-0.531,2.298-1.281,3.43-1.919c1.222-0.688,2.454-1.361,3.705-1.995
					c2.339-1.185,4.739-2.242,7.229-3.067c2.484-0.822,5.058-1.403,7.666-1.641c2.459-0.224,4.861,0.027,7.312,0.186
					C79.952,393.052,79.666,392.42,79.365,392.323z"/>
				<path style="opacity:0.3;" d="M79.365,392.323c-2.454-0.79-5.274-0.651-7.803-0.364c-2.51,0.285-4.98,0.875-7.367,1.697
					c-2.523,0.869-4.957,2-7.296,3.281c-1.224,0.671-2.426,1.382-3.603,2.131c-1.095,0.698-2.249,1.381-3.232,2.233
					c-0.038,0.033-0.031,0.185,0.04,0.153c1.187-0.531,2.298-1.281,3.43-1.919c1.222-0.688,2.454-1.361,3.705-1.995
					c2.339-1.185,4.739-2.242,7.229-3.067c2.484-0.822,5.058-1.403,7.666-1.641c2.459-0.224,4.861,0.027,7.312,0.186
					C79.952,393.052,79.666,392.42,79.365,392.323z"/>
			</g>
		</g>
	</g>
</g>
<g id="Speech_Bubble_2">
	<g id="Speech_Bubble_00000000932008878124818690000009399075803864720558_">
		<g>
			<path style="fill:#FFFFFF;" d="M321.843,129.962c-8.515-1.319-9.992-6.693-11.194-11.067l-0.343-1.23H302.6
				c-4.354,0-7.896-3.542-7.896-7.895V71.841c0-4.354,3.542-7.895,7.896-7.895h25.278c4.353,0,7.894,3.542,7.894,7.895v37.929
				c0,4.354-3.541,7.895-7.894,7.895h-8.019l-0.156,0.399C318.213,121.878,319.207,126.89,321.843,129.962z"/>
			<path style="fill:#BA68C8;" d="M327.879,64.574c4.007,0,7.267,3.26,7.267,7.267v37.929c0,4.007-3.26,7.267-7.267,7.267h-7.59
				h-0.857l-0.312,0.798c-1.393,3.561-0.797,7.965,1.242,11.19c-6.734-1.659-8.034-6.393-9.107-10.296
				c-0.073-0.265-0.144-0.525-0.216-0.778l-0.258-0.914h-0.95h-7.23c-4.007,0-7.267-3.26-7.267-7.267V71.841
				c0-4.007,3.26-7.267,7.267-7.267H327.879 M327.879,63.318H302.6c-4.707,0-8.523,3.816-8.523,8.523v37.929
				c0,4.707,3.816,8.523,8.523,8.523h7.23c1.319,4.67,2.612,11.637,13.814,12.508c-3.485-2.601-4.992-8.323-3.355-12.508h7.59
				c4.707,0,8.523-3.816,8.523-8.523V71.841C336.401,67.134,332.586,63.318,327.879,63.318L327.879,63.318z"/>
		</g>
		<g>
			<path style="fill:#BA68C8;" d="M305.129,75.787c0.61-0.514,1.278-0.995,1.997-1.442c0.724-0.447,1.496-0.841,2.325-1.181
				c0.829-0.34,1.718-0.604,2.669-0.794c0.954-0.19,1.985-0.285,3.093-0.285c1.556,0,2.959,0.206,4.213,0.621
				c1.249,0.414,2.313,1.007,3.19,1.777c0.878,0.768,1.553,1.696,2.026,2.782c0.473,1.083,0.707,2.288,0.707,3.615
				c0,1.258-0.174,2.347-0.521,3.267c-0.348,0.918-0.789,1.718-1.318,2.396c-0.53,0.679-1.112,1.268-1.751,1.765
				c-0.639,0.497-1.241,0.956-1.811,1.379c-0.574,0.423-1.072,0.841-1.492,1.253c-0.421,0.415-0.691,0.879-0.809,1.391l-0.695,3.479
				h-5.264l-0.546-4.001c-0.133-0.811-0.052-1.518,0.247-2.123c0.299-0.604,0.708-1.15,1.229-1.64
				c0.522-0.489,1.108-0.952,1.751-1.391c0.647-0.439,1.253-0.912,1.815-1.417c0.562-0.506,1.039-1.067,1.427-1.688
				c0.388-0.622,0.586-1.362,0.586-2.224c0-0.995-0.327-1.785-0.982-2.373c-0.655-0.586-1.553-0.882-2.697-0.882
				c-0.878,0-1.609,0.091-2.2,0.273c-0.586,0.184-1.092,0.386-1.512,0.609c-0.425,0.224-0.793,0.427-1.108,0.608
				c-0.315,0.184-0.627,0.275-0.942,0.275c-0.712,0-1.241-0.307-1.589-0.92L305.129,75.787z M309.698,104.776
				c0-0.596,0.113-1.15,0.336-1.666c0.226-0.511,0.53-0.96,0.922-1.34c0.388-0.38,0.845-0.683,1.379-0.908
				c0.53-0.222,1.108-0.334,1.738-0.334c0.611,0,1.181,0.111,1.714,0.334c0.53,0.224,0.991,0.528,1.391,0.908
				c0.396,0.38,0.708,0.829,0.93,1.34c0.222,0.515,0.336,1.069,0.336,1.666c0,0.596-0.113,1.154-0.336,1.676
				c-0.222,0.521-0.534,0.974-0.93,1.354c-0.4,0.38-0.861,0.679-1.391,0.894c-0.534,0.216-1.104,0.324-1.714,0.324
				c-0.631,0-1.209-0.107-1.738-0.324c-0.534-0.214-0.991-0.514-1.379-0.894c-0.392-0.38-0.695-0.833-0.922-1.354
				C309.811,105.931,309.698,105.373,309.698,104.776z"/>
		</g>
	</g>
</g>
<g id="Speech_Bubble_1">
	<g id="Speech_Bubble_00000034070409821210220990000015132045705278016178_">
		<path style="fill:#BA68C8;" d="M192.087,49.002c5.835-8.495,21.436-15.541,40.726-15.723c17.547-0.166,38.904,4.993,44.242,21.851
			c4.552,14.378-9.463,27.736-24.013,30.581c-6.311,1.234-12.191,1.765-17.56,1.856c-2.696,5.038-9.023,8.135-13.786,8.457
			c2.462-2.917,3.107-6.28,3.161-8.858c-5.364-0.504-9.924-1.388-13.482-2.278C186.113,78.574,185.558,58.507,192.087,49.002z"/>
		<path style="opacity:0.4;fill:#FFFFFF;" d="M192.087,49.002c5.835-8.495,21.436-15.541,40.726-15.723
			c17.547-0.166,38.904,4.993,44.242,21.851c4.552,14.378-9.463,27.736-24.013,30.581c-6.311,1.234-12.191,1.765-17.56,1.856
			c-2.696,5.038-9.023,8.135-13.786,8.457c2.462-2.917,3.107-6.28,3.161-8.858c-5.364-0.504-9.924-1.388-13.482-2.278
			C186.113,78.574,185.558,58.507,192.087,49.002z"/>
		<path style="fill:#FFFFFF;" d="M252.544,60.272c0,2.893,2.345,5.238,5.238,5.238s5.238-2.345,5.238-5.238
			s-2.345-5.238-5.238-5.238S252.544,57.379,252.544,60.272z M228.011,60.272c0,2.893,2.345,5.238,5.238,5.238
			c2.893,0,5.238-2.345,5.238-5.238s-2.345-5.238-5.238-5.238C230.356,55.034,228.011,57.379,228.011,60.272z M203.478,60.272
			c0,2.893,2.345,5.238,5.238,5.238c2.893,0,5.238-2.345,5.238-5.238s-2.345-5.238-5.238-5.238
			C205.823,55.034,203.478,57.379,203.478,60.272z"/>
	</g>
</g>
<g id="Character_2">
	<g id="Chartacter_00000103223533381666172560000009499058133001952189_">
		<g id="Bottom_00000080199964836023993250000007065031570478779805_">
			<g>
				<path style="fill:#FFA8A7;" d="M380.467,378.015l1.75-18.391l-21.733,0.845c0,0,0.39,9.971,0.721,15.613
					c0.195,3.336-2.619,10.289-2.619,10.289s9.568,5.211,14.655,3.313c5.087-1.899,7.732-8.508,7.649-9.944
					C380.807,378.306,380.467,378.015,380.467,378.015z"/>
				<path style="fill:#263238;" d="M331.876,407.151c-0.319-0.003-0.828,3.416,0.899,4.886c1.993,1.696,7.862,4.506,15.649,3.598
					c7.788-0.908,12.018-3.207,15.15-5.709c3.131-2.501,7.521-6.03,11.046-6.752c3.274-0.671,6.835-2.078,7.888-3.049
					c1.054-0.972,0.94-5.334,0.94-5.334L331.876,407.151z"/>
				<path id="XMLID_00000065062170536110913600000010720665358170493117_" style="fill:#455A64;" d="M380.47,377.981
					c0,0,0.976,0.019,1.17,1.031c0.231,1.204,0.464,4.7,0.964,6.677c0.694,2.748,1.131,8.371,0.687,10.601
					c-0.445,2.231-5.786,3.737-9.2,4.965c-3.488,1.255-7.531,3.87-11.083,6.666c-3.677,2.893-11.391,5.87-16.461,5.789
					c-5.999-0.096-12.74-2.041-14.269-4.755c-1.891-3.358-3.257-7.252,5.668-11.174c1.69-0.742,7.63-4.089,9.655-5.302
					c5.479-3.284,9.339-6.309,11.892-12.183c0.298-0.686,0.612-1.447,1.292-1.792c0.522-0.264,1.148-0.221,1.731-0.136
					c1.48,0.215,7.386,1.058,8.732,1.695c1.19,0.563,2.879,1.221,2.842,2.705c-0.013,0.516-0.171,1.018-0.346,1.505
					c-0.109,0.302-0.196,0.705,0.076,0.886c0.257,0.172,0.6-0.018,0.834-0.218c0.937-0.802,1.627-1.834,2.419-2.772
					c0.423-0.503,0.885-0.984,1.418-1.38c0.484-0.359,1.1-0.535,1.531-0.944C380.564,379.326,380.44,378.677,380.47,377.981z"/>
				<path style="fill:#37474F;" d="M363.007,407.921c1.561-1.229,3.217-2.414,4.879-3.473v-0.008c0,0-10.508,6.081-14.714,3.241
					c-2.71-1.829-1.398-4.012-1.328-4.712c0.071-0.701-9.508-5.733-12.15-6.062l0,0c-0.74,0.389-1.36,0.702-1.749,0.872
					c-8.925,3.922-7.558,7.816-5.667,11.175c1.528,2.714,6.406,4.863,14.16,4.932C351.508,413.933,359.329,410.815,363.007,407.921z
					"/>
				<path style="fill:#37474F;" d="M352.59,400.933c-5.548,2.098-3.195,3.122-1.648,3.35c1.548,0.229,10.898-4.967,16.608-9.278
					c5.957-4.496,9.728-9.436,11.941-11.086c0.825-0.616,1.713-1.373,2.504-2.081c-0.137-1.183-0.247-2.26-0.355-2.827
					c-0.194-1.011-1.17-1.031-1.17-1.031c-0.031,0.696,0.094,1.345-0.45,1.863c-0.43,0.409-1.046,0.585-1.531,0.944
					c-0.533,0.396-0.995,0.877-1.418,1.38c-0.791,0.939-1.481,1.971-2.419,2.772C369.777,390.849,358.137,398.835,352.59,400.933z"
					/>
				<g>
					<g>
						<path style="fill:#263238;" d="M351.341,403.498c0.123,0.001,0.245-0.037,0.348-0.117c0.236-0.183,0.274-0.518,0.083-0.747
							c-1.548-1.87-8.915-6.338-12.988-5.94c-0.302,0.028-0.521,0.289-0.49,0.58c0.029,0.291,0.267,0.496,0.599,0.477
							c3.803-0.362,10.8,4.067,12.026,5.548C351.025,403.428,351.182,403.496,351.341,403.498z"/>
					</g>
					<g>
						<path style="fill:#263238;" d="M356.187,400.658c0.123,0.001,0.245-0.037,0.348-0.117c0.236-0.183,0.272-0.518,0.083-0.747
							c-1.547-1.868-8.911-6.333-12.988-5.939c-0.302,0.029-0.521,0.29-0.49,0.58c0.03,0.292,0.29,0.505,0.599,0.477
							c3.805-0.358,10.8,4.066,12.026,5.547C355.872,400.589,356.029,400.657,356.187,400.658z"/>
					</g>
					<g>
						<path style="fill:#263238;" d="M361.035,397.971c0.122,0.001,0.245-0.037,0.347-0.118c0.236-0.183,0.272-0.517,0.083-0.747
							c-1.548-1.869-8.914-6.341-12.988-5.939c-0.301,0.028-0.521,0.289-0.489,0.581c0.03,0.291,0.286,0.505,0.599,0.477
							c3.805-0.363,10.8,4.065,12.026,5.547C360.719,397.901,360.876,397.969,361.035,397.971z"/>
					</g>
					<g>
						<path style="fill:#263238;" d="M365.529,394.892c0.122,0.001,0.245-0.036,0.347-0.117c0.236-0.183,0.272-0.517,0.083-0.747
							c-1.547-1.87-8.93-6.337-12.988-5.939c-0.301,0.029-0.521,0.289-0.49,0.58c0.03,0.292,0.288,0.504,0.599,0.478
							c3.8-0.36,10.8,4.065,12.026,5.546C365.214,394.823,365.37,394.891,365.529,394.892z"/>
					</g>
					<g>
						<path style="fill:#263238;" d="M369.934,391.813c0.119,0.001,0.24-0.035,0.341-0.112c0.239-0.18,0.28-0.514,0.095-0.745
							c-2.127-2.65-9.848-6.397-13.92-6.001c-0.301,0.028-0.521,0.289-0.49,0.581c0.03,0.291,0.29,0.496,0.599,0.477
							c3.666-0.354,11.06,3.247,12.948,5.596C369.613,391.742,369.773,391.812,369.934,391.813z"/>
					</g>
				</g>
			</g>
			<g>
				<path style="fill:#FFA8A7;" d="M417.777,387.802l-4.273-17.601l21.518-3.203l0.562,16.953c0,0,2.075,6.094,0.76,8.292
					c-1.315,2.199-15.86,4.753-17.114,3.27C417.977,394.03,417.777,387.802,417.777,387.802z"/>
				<path style="fill:#263238;" d="M419.078,426.004c0.559,5.436,1.626,8.958,3.864,11.92c2.239,2.963,6.971,3.146,10.975,1.729
					c4.003-1.417,9.079-4.541,10.054-9.402c0.975-4.861,0.615-8.072-0.499-13.043L419.078,426.004z"/>
				<path id="XMLID_00000013880222838951787020000003310119351930782592_" style="fill:#455A64;" d="M435.585,383.952
					c1.669-0.076,1.179,7.361,2.424,14.611c1.334,7.771,4.025,10.733,5.195,17.095c1.337,7.269,1.042,10.622-1.603,15.424
					c-2.644,4.803-13.157,10.719-18.322,4.897c-4.211-4.746-4.601-10.514-4.522-17.94c0.082-7.676,0.206-13.083-0.358-18.834
					c-0.539-5.497-2.039-10.398-0.617-11.184c0.143,0.8,0.291,1.818,0.44,2.603c0.115,0.602,0.397,3.579,1.331,3.499
					c0.059-0.717,0.017-1.374-0.063-2.088c-0.069-0.621-0.038-1.31,0.387-1.839c0.428-0.534,2.024-1.189,2.694-1.391
					c1.627-0.491,5.235-1.449,6.894-1.784c0.826-0.166,1.656-0.301,2.489-0.391c0.675-0.072,1.472-0.114,2.12,0.028
					c0.398,0.087,0.771,0.301,0.93,0.644c0.118,0.254,0.109,0.55,0.12,0.834c0.02,0.511,0.11,1.014,0.267,1.493
					c0.07,0.211,0.244,0.458,0.48,0.377c0.192-0.066,0.26-0.296,0.254-0.479c-0.028-0.893-0.177-1.527-0.262-2.559
					c-0.039-0.477-0.149-1.121-0.175-1.602C435.66,384.894,435.638,384.421,435.585,383.952z"/>
				<path style="fill:#37474F;" d="M442.745,413.6c0.203,1.048,1.46,7.992-0.583,9.512c-2.211,1.645-3.669-3.76-3.669-3.76
					s-6.074-0.513-13.684,3.508c0.441,1.098-0.605,5.017-2.757,4.469c-2.138-0.544-3.284-8.545-3.298-8.649
					c-0.047,7.116,0.438,12.692,4.526,17.3c5.166,5.822,15.678-0.094,18.322-4.897c2.645-4.803,2.94-8.155,1.603-15.424
					C443.07,414.931,442.914,414.252,442.745,413.6z"/>
				<path style="fill:#37474F;" d="M437.905,419.897c0.137,2.669,2.973,1.428,2.952-2.361c-0.022-3.788-2.617-12.478-2.847-18.973
					c-0.408-8.915-0.755-14.687-2.424-14.611c0.01,0.09,0.011,0.181,0.019,0.271l0.364,3.714c0.069,0.538,0.138,1.014,0.156,1.59
					c0.253,5.446,0.232,16.023,0.936,20.947C437.764,415.398,437.768,417.229,437.905,419.897z"/>
				<path style="fill:#37474F;" d="M425.702,422.68c-0.648-2.561-1.177-4.28-1.949-9.19c-0.766-4.873-3.489-14.64-4.834-19.891
					c-0.442-0.864-0.615-2.54-0.698-2.976c-0.139-0.732-0.277-1.662-0.411-2.434c-0.014-0.054-0.027-0.107-0.038-0.162
					c-1.025,0.585-0.71,4.806-0.188,6.995c0.522,2.189,1.162,4.536,1.811,7.676c1.674,6.19,1.76,15.462,2.842,19.027
					C423.32,425.29,426.35,425.241,425.702,422.68z"/>
				<g>
					<g>
						<path style="fill:#263238;" d="M424.653,423.095c0.077-0.016,0.151-0.046,0.222-0.088c0.058-0.037,6.694-3.943,13.479-3.089
							c0.334,0.04,0.664-0.18,0.739-0.491c0.076-0.313-0.133-0.599-0.465-0.642c-7.259-0.914-14.105,3.126-14.365,3.285
							c-0.295,0.18-0.4,0.536-0.23,0.795C424.162,423.062,424.412,423.146,424.653,423.095z"/>
					</g>
					<g>
						<path style="fill:#263238;" d="M423.039,417.458c0.069-0.015,0.137-0.04,0.203-0.077c0.066-0.037,7.449-4.12,15.008-3.41
							c0.334,0.026,0.658-0.198,0.724-0.513c0.065-0.314-0.155-0.595-0.49-0.626c-7.994-0.747-15.527,3.426-15.815,3.587
							c-0.302,0.173-0.419,0.526-0.262,0.792C422.531,417.419,422.788,417.511,423.039,417.458z"/>
					</g>
					<g>
						<path style="fill:#263238;" d="M437.632,408.51c0.232-0.049,0.437-0.217,0.509-0.443c0.096-0.31-0.088-0.612-0.414-0.675
							c-7.552-1.443-15.494,3.268-15.8,3.455c-0.297,0.181-0.4,0.536-0.23,0.796c0.17,0.258,0.551,0.315,0.841,0.141
							c0.069-0.041,7.805-4.621,14.832-3.269C437.458,408.53,437.546,408.528,437.632,408.51z"/>
					</g>
					<g>
						<path style="fill:#263238;" d="M437.002,403.364c0.228-0.048,0.429-0.212,0.504-0.433c0.104-0.31-0.075-0.615-0.4-0.682
							c-8.312-1.734-15.821,3.251-16.106,3.448c-0.285,0.197-0.365,0.556-0.177,0.804c0.188,0.247,0.578,0.287,0.855,0.09
							c0.063-0.045,7.315-4.837,15.051-3.225C436.822,403.385,436.914,403.383,437.002,403.364z"/>
					</g>
					<g>
						<path style="fill:#263238;" d="M436.27,397.587c0.224-0.048,0.425-0.208,0.502-0.426c0.108-0.308-0.065-0.616-0.389-0.688
							c-7.794-1.74-15.899,3.412-16.21,3.62c-0.29,0.189-0.377,0.549-0.197,0.801c0.179,0.252,0.559,0.306,0.85,0.109
							c0.073-0.047,7.927-5.033,15.163-3.416C436.084,397.606,436.178,397.607,436.27,397.587z"/>
					</g>
				</g>
			</g>
			<g>
				<path id="XMLID_00000059989126681424666530000014517263000247191685_" style="fill:#455A64;" d="M427.134,211
					c5.832,42.214,3.391,87.407,4.004,95.907c0.673,7.733,2.243,11.474,3.243,26.435c0.943,14.111,2.285,41.775,2.308,43.44
					c0,0-7.785,5.727-22.232,4.297c0,0-12.47-41.039-17.231-59.476c-4.507-17.448-6.789-45.513-6.789-45.513l-2.105,28.651
					c0,0,0.827,10.629,0.709,18.583c-0.137,9.251-5.805,47.163-5.805,47.163s-14.361,3.843-23.717-2.091
					c0,0-5.263-52.84-5.786-63.95c-1.025-21.793-0.635-68.894,1.691-95.726L427.134,211z"/>
				<path id="XMLID_00000136396197187658233380000001110738266156938164_" style="fill:#37474F;" d="M390.436,276.09l-2.639-27.718
					c0,0-12.577-1.804-17.906-6.636c0,0,4.524,8.047,14.166,10.359l3.3,24.861l0.975,27.785L390.436,276.09z"/>
				<g>
					<path style="fill:#37474F;" d="M425.177,373.587c3.837-0.704,7.747-1.913,11.198-3.901c-0.029-0.608-0.06-1.243-0.092-1.907
						c-1.242,0.687-2.504,1.329-3.819,1.882c-0.177-7.548-0.317-19.709-1.022-28.204c-0.415-5.002-1.231-10.746-1.961-15.322
						c-0.797-4.994-1.234-8.603-2.149-13.58c-1.712-9.315-1.827-18.427-1.928-27.89c-0.101-9.474,0.143-18.951-0.197-28.421
						c-0.331-9.232-1.06-18.7-3.619-27.592c-0.292-1.013-0.616-2.006-0.981-2.992c-0.188-0.506-1.136-0.665-0.977,0.052
						c1.01,4.554,1.981,9.119,2.625,13.748c0.634,4.558,1.003,9.152,1.217,13.749c-2.17,0.031-4.129-0.82-5.683-2.454
						c-1.64-1.724-2.566-4.042-3.235-6.325c-1.527-5.212-2.432-10.704-3.178-16.088c-0.437-3.15-0.769-6.314-1.005-9.487
						c-0.057-0.768-1.442-0.791-1.381,0.042c0.449,6.052,1.257,12.072,2.436,18.017c0.557,2.81,1.128,5.65,1.979,8.383
						c0.738,2.374,1.816,4.706,3.581,6.444c1.682,1.655,4.159,2.906,6.522,2.538c0.376,9.002,0.215,18.017,0.256,27.025
						c0.043,9.278,0.302,18.591,1.653,27.777c1.436,9.767,3.081,18.551,4.121,28.37c1.297,12.251,1.304,20.891,1.738,32.678
						c-2.159,0.806-4.393,1.395-6.652,1.801c-2.513,0.452-5.052,0.716-7.6,0.806c-1.711,0.061-3.41-0.01-5.11-0.083
						c0.17,0.568,0.335,1.114,0.491,1.635c1.518,0.073,3.042,0.081,4.539,0.058C419.701,374.305,422.461,374.086,425.177,373.587z"
						/>
					<path style="fill:#37474F;" d="M381.699,344.219c0.715-6.608,1.206-13.25,1.25-19.901c0.022-3.344-0.068-6.688-0.296-10.024
						c-0.22-3.217-0.64-6.419-0.763-9.642c-0.251-6.609,1.053-14.568,1.877-21.095c1.086-8.6,2.348-16.23,2.112-23.682
						c-0.009-0.299-0.712-1.609-0.736-1.176c-0.357,6.706-1.753,15.329-2.545,23.156c-0.664,6.56-1.914,13.753-1.989,20.369
						c-0.036,3.231,0.334,6.438,0.612,9.65c0.284,3.28,0.432,6.571,0.464,9.864c0.063,6.646-0.337,13.289-0.99,19.898
						c-0.365,3.695-0.81,7.381-1.296,11.061c-0.473,3.573-1.07,7.14-1.437,10.727c-2.228,0.18-4.472,0.145-6.695-0.064
						c-2.54-0.239-5.058-0.668-7.542-1.266c-1.688-0.407-3.33-0.94-4.974-1.474c0.06,0.612,0.117,1.195,0.171,1.746
						c1.433,0.472,2.886,0.885,4.323,1.261c2.672,0.7,5.393,1.23,8.14,1.479c4.223,0.383,8.675,0.207,12.789-1.044
						c0.082-0.568,0.168-1.168,0.257-1.791c-1.75,0.452-3.507,0.832-5.314,1.046C380.275,357.018,381.011,350.586,381.699,344.219z"
						/>
				</g>
			</g>
		</g>
		<g id="Top_00000133512071016440209280000006737226713783735475_">
			<g id="Arm_00000098935903512945678710000001470495906613006757_">
				<g>
					<path style="fill:#FFA8A7;" d="M368.858,128.555c-8.765,2.485-11.679,4.529-18.168,13.952
						c-4.869,7.07-17.253,27.469-17.253,27.469s-2.162,25.263,3.289,25.101c2.727-0.081,5.95-1.149,8.245-3.564
						c7.529-7.922,20.126-25.851,20.126-25.851L368.858,128.555z"/>
					<path style="fill:#455A64;" d="M369.165,127.771c-5.005,0.646-11.237,2.948-15.176,8.154
						c-3.939,5.205-14.871,23.287-14.871,23.287s0.297,5.428,6.768,11.899c6.471,6.471,12.269,6.483,12.269,6.483l16.032-24.063
						L369.165,127.771z"/>
					<path style="fill:#F28F8F;" d="M334.191,168.736c3.41,2.843,8.817,17.064,8.817,17.064s1.708-6.078-0.587-11.592
						c-2.295-5.513-6.017-9.092-6.017-9.092L334.191,168.736z"/>
				</g>
				<g>
					<path style="fill:#F28F8F;" d="M283.804,153.103c-1.157-1.951-4.158-0.945-5.725-2.207c-1.075-0.866-0.746-2.204,0.368-2.774
						c1.217-0.623,2.645-0.327,3.953-0.429c1.546-0.121,2.965-0.669,4.322-1.399c2.822-1.519,6.412-2.74,9.414-0.886
						c-0.148-0.091-1.769,1.104-1.927,1.202C290.74,148.775,287.26,150.921,283.804,153.103z"/>
					<path style="fill:#FFA8A7;" d="M271.94,153.062c0.398,0.129,0.788,0.27,1.165,0.411c0.494,0.186,0.995,0.352,1.486,0.545
						c0.238,0.094,0.474,0.194,0.703,0.305c0.106,0.051,0.586,0.399,0.675,0.373c1.14-0.322,2.518-1.172,4.46-1.05
						c1.942,0.122,2.379,0.461,4.826-1.692c1.648-1.45,3.58-3.978,5.817-5.306c2.237-1.328,4.57-2.186,7.277-0.159
						c2.706,2.026,4.106,3.468,6.964,5.391c2.158,1.452,3.695,2.548,14.721,8.719c8.1,4.533,14.771,7.136,20.204,14.467
						c2.194,2.96,6.89,14.119,4.735,16.446c-3.046,3.289-10.72,6.208-19.377-0.243c-3.475-2.589-6.18-4.745-11.286-9.553
						c-3.582-3.374-5.147-5.141-10.246-10.028c-5.071-4.86-8.033-7.371-10.897-8.679c-2.444-1.117-5.51-0.569-7.572-0.272
						c-3.582,0.516-4.451,0.449-8.148-0.126c-2.727-0.424-4.512-1.035-6.391-1.384c-1.879-0.349-3.533-1.526-5.374-2.418
						c-1.173-0.568-1.865-0.896-3.177-1.517c-0.291-0.138-0.775-0.342-0.951-0.611c-0.126-0.192,0.052-0.655,0.116-0.876
						c0.064-0.221,0.198-0.416,0.347-0.591c-0.082,0.084-1.017-0.136-1.159-0.165c-0.347-0.071-0.64-0.153-1.005-0.189
						c-0.254-0.025-0.541-0.161-0.573-0.414c-0.019-0.152,0.062-0.298,0.149-0.423c0.363-0.522,0.892-0.928,1.491-1.143
						c0.806-0.29,1.687-0.233,2.541-0.289c0.127-0.008,0.256-0.02,0.371-0.074c0.15-0.07,0.259-0.202,0.384-0.31
						c0.396-0.342,0.954-0.437,1.476-0.399c0.947,0.07,1.836,0.405,2.76,0.584c0.558,0.108,1.13,0.127,1.691,0.219
						C270.737,152.705,271.346,152.869,271.94,153.062z"/>
					<path style="fill:#F28F8F;" d="M278.541,155.417c0.869,0.049,1.74-0.176,2.534-0.528c0.677-0.31,1.298-0.719,1.863-1.2
						c0.734-0.245,1.395-0.681,1.922-1.102c1.274-1.085,2.617-2.578,4.054-3.921c1.395-0.598,2.88-1.055,4.304-0.786
						c0.741,0.125,1.455,0.326,2.148,0.655c0.694,0.331,1.394,1.001,2.079,1.448c-0.459-0.681-1.055-1.274-1.749-1.737
						c-0.691-0.47-1.49-0.781-2.314-0.934c-1.487-0.266-3.004,0.317-4.244,1.147c2.69-2.466,5.707-4.318,9.211-1.97
						c-2.645-2.438-6.334-1.093-8.817,0.916c-2.474,1.805-4.168,4.896-7.102,5.925c-0.667,0.137-1.468-0.037-2.296-0.039
						c-1.486-0.043-2.815,0.602-4.169,1.074c-0.064-0.033-0.137-0.077-0.211-0.123c-2.187-1.052-4.515-1.809-6.924-1.97
						c-1.47-0.085-3.287-1.134-4.616-0.068c1.44-0.914,3.038,0.116,4.551,0.308c2.419,0.267,4.765,1.085,6.87,2.22
						c0.073,0.012,0.207,0.137,0.498,0.097c1.33-0.423,2.428-1.095,3.842-1.032c0.709,0.002,1.551,0.145,2.405,0.032
						c-0.105,0.052-0.21,0.104-0.315,0.155c-0.384,0.183-0.76,0.376-1.145,0.545C280.153,154.883,279.37,155.16,278.541,155.417z
						 M272.692,156.794c-0.304,0.066-0.619,0.13-0.922,0.062c-0.229-0.051-0.434-0.174-0.642-0.282
						c-0.89-0.46-1.912-0.662-2.91-0.577c-0.234,0.02-0.472,0.055-0.702,0.006c-0.234-0.049-0.44-0.182-0.652-0.292
						c-0.773-0.402-1.658-0.522-2.523-0.635c-0.215-0.028-0.437-0.056-0.652-0.04c-0.126,0.009-0.25,0.033-0.369,0.08
						c0.746-0.007,1.492,0.113,2.199,0.348c0.688,0.229,1.238,0.608,1.858,0.952l0.087,0.048l0.133-0.013
						c0.332-0.033,0.712-0.034,1.07-0.018c0.358,0.016,0.711,0.074,1.061,0.141c0.704,0.134,1.38,0.39,2.003,0.746l0.192,0.109
						l0.138-0.058c0.234-0.1,0.516-0.193,0.787-0.26c0.275-0.066,0.554-0.131,0.838-0.166c0.283-0.035,0.571-0.075,0.861-0.077
						c0.291-0.009,0.582,0.014,0.882,0.033C274.54,156.518,273.618,156.592,272.692,156.794z M264.48,152.702
						c-0.171-0.03-0.361,0.001-0.526-0.032c0.55,0.112,1.085,0.416,1.597,0.639c0.11,0.048,0.221,0.097,0.337,0.13
						c0.124,0.036,0.252,0.053,0.379,0.071c0.647,0.089,1.282,0.139,1.894,0.376c0.656,0.241,1.253,0.604,1.766,1.056l0.162,0.143
						l0.197-0.081c0.323-0.134,0.724-0.243,1.104-0.32c0.388-0.072,0.784-0.125,1.184-0.148c0.4-0.016,0.805-0.025,1.213,0
						c0.41,0.01,0.815,0.075,1.232,0.119c-1.32-0.469-2.606-0.432-3.135-0.355c-0.331,0.048-0.66,0.112-0.988,0.181
						c-0.222,0.047-0.611,0.21-0.831,0.089c-0.038-0.021-0.068-0.053-0.099-0.084c-0.512-0.527-1.186-0.893-1.907-1.036
						c-0.686-0.136-1.4-0.075-2.077-0.26c-0.33-0.09-0.642-0.243-0.968-0.348C264.839,152.783,264.661,152.733,264.48,152.702z"/>
				</g>
			</g>
			<g id="Chest_00000045608316702418046540000018060459575423616437_">
				<path id="Chest_00000180351697421476905300000010043882365020085159_" style="fill:#F0F0F0;" d="M403.514,128.381
					c8.743,1.394,14.805,2.771,19.022,3.711c0,0,10.532,7.525,7.529,39.026c-0.424,4.447-1.453,17.188-1.358,27.901
					c0.067,7.62-0.108,17.92,0.237,23.225c0,0-17.628,10.244-47.07,7.071c-23.116-2.492-27.768-11.038-27.768-11.038
					c0.171-6.651,0.689-36.893,1.781-55.009c1.396-23.141,6.808-28.256,13.278-35.497c0,0,4.661-0.655,14.174-0.641
					C391.396,127.142,394.771,126.987,403.514,128.381z"/>
				<path style="fill:#E0E0E0;" d="M364.169,150.211c-0.973,4.964-1.448,9.626-1.54,15.177c11.442,4.069,25.415,7.163,38.901,6.614
					c0.08-5.695,0.506-10.43,1.057-15.816C393.099,156.511,375.973,154.409,364.169,150.211z"/>
			</g>
			<g id="Head_00000019649678753086281430000013216717560345593266_">
				<g id="XMLID_00000084530085918017053360000013578639254208081334_">
					<g>
						<path style="fill:#263238;" d="M409.9,80.779c0,0,3.76,0.583,5.908,5.321c1.079,2.38,1.689,8.151-2.582,19.751
							c-2.748,7.466-5.625,10.584-6.954,12.616c-1.329,2.031-3.781,2.43-3.781,2.43l0.911-9.111l0.801-7.874
							c0,0-5.307-1.86-6.172-9.195c-0.695-5.895,1.853-8.099,1.853-8.099L409.9,80.779z"/>
						<path style="fill:#263238;" d="M415.572,85.316c1.731-9.004-15.47-22.187-26.315-15.886
							c-3.538-5.076-12.321-3.071-13.281,2.057c-3.091-1.562-9.24,5.538-7.892,9.402c-3.115,8.411,1.099,11.899,5.268,11.896
							c10.209-0.008,21.142-0.385,31.428,0.324C404.78,93.107,415.549,85.333,415.572,85.316z"/>
					</g>
					<path id="XMLID_00000083767721779415163660000001909134805450048643_" style="fill:#FFA8A7;" d="M372.979,80.392
						c-2.174,1.897-5.315,6.21-6.298,22.431c-0.668,11.024,1.99,15.956,5.976,17.977c2.62,1.328,6.048,2.405,10.772,2.485
						l-0.153,6.613c-9.794,8.892,16.489,11.583,23.17-0.145l0.131-18.104c0.686,1.358,4.219,2.3,6.896-0.236
						c4.24-4.015,3.554-9.95,0.533-12.233c-3.128-2.365-7.607-1.903-9.373,2.456c-3.558,1.14-6.05-3.758-4.705-17.035
						C385.558,87.844,382.138,76.45,372.979,80.392z"/>
					<g id="XMLID_00000045603894778468120700000008013974792433004472_">
						<path id="XMLID_00000046304621228477451150000018028877422584563340_" style="fill:#F28F8F;" d="M383.428,123.284
							c11.565-0.357,17.034-5.706,18.488-9.919c0,0,0.351,7.286-7.75,10.736c-6.027,2.567-10.709,1.979-10.709,1.979
							L383.428,123.284z"/>
					</g>
					<g>
						<g id="XMLID_00000165944988864941626190000012378779572608000422_">
							<path id="XMLID_00000052799287658184806350000007228570922846358927_" style="fill:#B16668;" d="M378.802,109.484
								l7.651-2.111c0.675,2.092-0.492,4.261-2.605,4.844C381.736,112.799,379.477,111.575,378.802,109.484z"/>
						</g>
						<path style="fill:#F28F8F;" d="M382.136,112.301c0.56,0.089,1.14,0.073,1.712-0.084c1.473-0.406,2.468-1.588,2.718-2.973
							C384.544,109.2,382.776,110.461,382.136,112.301z"/>
						<path style="fill:#263238;" d="M390.199,96.465c-0.134,1.176-1.203,2.021-2.388,1.887c-1.186-0.134-2.038-1.197-1.905-2.374
							c0.133-1.176,1.202-2.021,2.388-1.887C389.48,94.225,390.333,95.288,390.199,96.465z"/>
						<path style="fill:#263238;" d="M374.998,94.536c-0.134,1.176-1.203,2.021-2.388,1.887c-1.186-0.134-2.039-1.197-1.905-2.374
							c0.133-1.176,1.203-2.021,2.388-1.887C374.279,92.296,375.131,93.359,374.998,94.536z"/>
						<g id="XMLID_00000105415588994090168310000000654002452399457692_">
							<polygon id="XMLID_00000106144876557170967540000000840037415803552391_" style="fill:#F28F8F;" points="381.549,91.888 
								379.103,105.182 372.595,101.5 							"/>
						</g>
						<g id="XMLID_00000073683201487208197870000004454381625795509895_">
							<path id="XMLID_00000098912069854574389100000009926213110042852777_" style="fill:#263238;" d="M370.738,89.863l5.114-1.141
								c-0.269-1.425-1.632-2.325-3.044-2.01C371.396,87.027,370.469,88.438,370.738,89.863z"/>
						</g>
						<g id="XMLID_00000100353838193343304700000002367613392594414763_">
							<path id="XMLID_00000139979400320019282140000016068616365279349928_" style="fill:#263238;" d="M392.358,92.73l-4.606-2.631
								c0.688-1.299,2.276-1.762,3.548-1.035C392.572,89.79,393.046,91.432,392.358,92.73z"/>
						</g>
					</g>
				</g>
				<g id="Cap_00000176725112642204050950000000282662402535561100_">
					<path style="fill:#455A64;" d="M370.944,79.925c21.118,0.491,29.91,10.328,29.91,10.328c2.396,1.706,6.232,4.875,7.489,7.753
						c1.652-0.42,4.446-0.348,6.809,2.363c0.199-0.541,0.799-1.213,1.532-4.343c1.652-7.058,2.13-21.731-14.526-27.664
						c-15.29-5.446-26.232-3.194-29.763,4.966C371.633,75.091,370.89,79.927,370.944,79.925z"/>
					<path style="fill:#BA68C8;" d="M401.353,88.277c-0.414-0.517-1.917-6.031-9.434-11.936c-4.639-3.644-15.017-5.52-19.693-6.219
						c-8.188-1.225-10.419,0.244-10.714,1.468c-0.07,0.291-0.397,1.637-0.483,1.94c-0.086,0.303-0.051,0.594,0.047,0.828
						c0.926,2.118,7.008,6.531,7.008,6.531c10.66-1.218,23.144,2.602,32.77,9.365L401.353,88.277z"/>
					<path style="fill:#37474F;" d="M400.853,90.253c-9.626-6.763-22.37-10.167-32.77-9.365c0,0-6.082-4.413-7.008-6.531
						c-0.49-1.168,0.521-3.775,10.651-2.259c4.677,0.7,15.054,2.576,19.693,6.219C398.937,84.222,400.439,89.736,400.853,90.253z"/>
				</g>
			</g>
			<g id="Arm_00000145780064780414872820000011589450577473559953_">
				<path style="fill:#FFA8A7;" d="M422.988,134.45c4.088,0.706,14.466,2.411,18.472,10.464
					c5.214,10.481,13.176,28.197,18.302,41.299c3.077,7.866,3.282,10.375,0.092,17.304c-3.068,6.665-18.33,28.984-24.023,35.577
					c-4.231,4.9-9.465,12.358-12.356,14.115c0,0-8.945,2.034-10.885-17.219c0,0,1.343-3.154-2.952-1.663
					c-2.983,1.035-6.767,1.261-8.565-0.466c-1.798-1.727,2.397-2.654,4.523-3.969c2.126-1.315,5.013-3.358,10.31-4.257
					c5.298-0.898,9.369-1.715,12.375-8.398c5.725-12.729,8.923-19.985,8.923-19.985l-14.974-31.927
					C417.298,155.054,418.637,143.818,422.988,134.45z"/>
				<g>
					<path style="fill:#455A64;" d="M422.536,132.092c12.771,3.204,17.374,6.529,22.995,19.573
						c3.78,8.771,10.309,23.998,10.309,23.998s-2.819,5.191-10.508,8.05c-10.859,4.038-14.48,2.2-14.48,2.2
						s-5.533-12.103-10.109-21.773C414.955,151.905,417.796,137.416,422.536,132.092z"/>
				</g>
				<path style="fill:#F28F8F;" d="M437.204,197.252c3.187-4.961,9.745-6.525,9.745-6.525s-6.016-1.925-11.094,3.771
					L437.204,197.252z"/>
			</g>
		</g>
	</g>
</g>
<g id="Character_1">
	<g id="Speech_Bubble_00000065071409747244119150000001705136734481716410_">
		<g id="Speech_Bubble_00000173140019464848966510000016501768452983559347_">
			<g>
				<path style="fill:#BA68C8;" d="M143.868,262.172l2.584-8.067c1.392-6.517-25.197,8.834-26.588,15.351l8.568,23.06
					c0.328,0.752,0.838,1.31,1.437,1.678c1.883,1.158,8.809,5.065,9.411,5.434c1.897,1.16,4.687,0.433,5.477-2.035l11.098-38.06
					C156.541,256.318,150.416,258.429,143.868,262.172z"/>
				<path style="opacity:0.2;fill:#FFFFFF;" d="M143.868,262.172l2.584-8.067c1.392-6.517-25.197,8.834-26.588,15.351l8.568,23.06
					c0.328,0.752,0.838,1.31,1.437,1.678c1.883,1.158,8.809,5.065,9.411,5.434c1.897,1.16,4.687,0.433,5.477-2.035l11.098-38.06
					C156.541,256.318,150.416,258.429,143.868,262.172z"/>
			</g>
			<g id="XMLID_00000168105531540964821520000009519541973650908607_">
				<path id="XMLID_00000121965864895681067690000018058535346576762017_" style="fill:#BA68C8;" d="M181.177,97.472l-101.08,58.31
					c-1.887,1.089-3.417,3.739-3.417,5.918v130.143c0,2.179,1.538,4.814,3.436,5.884l5.077,2.857
					c1.898,1.071,4.966,1.056,6.853-0.034l101.08-58.309c1.887-1.089,3.417-3.739,3.417-5.918V106.18
					c0-2.179-1.538-4.813-3.436-5.885l-5.078-2.857C186.132,96.368,183.064,96.382,181.177,97.472z"/>
				<path id="XMLID_00000175317736259478237690000008620281225433681077_" style="opacity:0.2;fill:#FFFFFF;" d="M181.177,97.472
					l-101.08,58.31c-1.887,1.089-3.417,3.739-3.417,5.918v130.143c0,2.179,1.538,4.814,3.436,5.884l5.077,2.857
					c1.898,1.071,4.966,1.056,6.853-0.034l101.08-58.309c1.887-1.089,3.417-3.739,3.417-5.918V106.18
					c0-2.179-1.538-4.813-3.436-5.885l-5.078-2.857C186.132,96.368,183.064,96.382,181.177,97.472z"/>
				<path style="fill:#BA68C8;" d="M193.127,104.207l-101.081,58.31c-1.887,1.089-3.417,3.739-3.417,5.918v130.143
					c0,2.179,1.53,3.062,3.417,1.972l38.682-22.314l7.106,19.707c1.366,3.131,5.88,2.902,6.922-0.351l9.444-32.897l38.926-22.455
					c1.887-1.089,3.416-3.739,3.416-5.918V106.18C196.543,104.001,195.014,103.118,193.127,104.207z"/>
				<path style="opacity:0.4;fill:#FFFFFF;" d="M193.127,104.207l-101.081,58.31c-1.887,1.089-3.417,3.739-3.417,5.918v130.143
					c0,2.179,1.53,3.062,3.417,1.972l38.682-22.314l7.106,19.707c1.366,3.131,5.88,2.902,6.922-0.351l9.444-32.897l38.926-22.455
					c1.887-1.089,3.416-3.739,3.416-5.918V106.18C196.543,104.001,195.014,103.118,193.127,104.207z"/>
				<path style="fill:#FFFFFF;" d="M97.319,170.033c0.045-0.116,0.137-0.274,0.214-0.371l90.322-52.103v117.167
					c-0.045,0.116-0.137,0.275-0.214,0.372l-90.322,52.103V170.033z"/>
				<path id="XMLID_00000178892947039265806550000010156151552760763062_" style="opacity:0.7;fill:#FFFFFF;" d="M196.498,105.561
					c-0.268-1.721-1.673-2.336-3.377-1.358L92.053,162.517c-0.947,0.552-1.799,1.483-2.415,2.557l-11.889-6.862
					c0.616-1.026,1.436-1.91,2.352-2.431l101.083-58.313c1.878-1.089,4.94-1.105,6.849-0.032l5.071,2.854
					C194.825,101.268,196.261,103.524,196.498,105.561z"/>
			</g>
		</g>
		<g id="Character_00000036245272226075203900000015588303787855409079_">
			<g id="Bottom_00000156561774381887455020000008471998217206752671_">
				<g id="Bottom_00000156554778293424068730000002331798239773292971_">
					<path style="fill:#263238;" d="M182.602,238.003l-78.52,45.32c0.235-7.521,0.926-19.548,1.663-32.547
						c1.71-30.114,7.002-39.717,13.566-51.119l59.361,0.778C180.796,210.46,181.991,224.178,182.602,238.003z"/>
					<path d="M152.853,237.867l-2.612,18.814l3.124-1.803l1.514-10.495c5.008-1.126,16.426-6.856,19.619-15.13
						C166.727,237.008,152.853,237.867,152.853,237.867z M128.023,214.609c-1.24,3.193-2.221,6.459-3.079,9.757
						c-0.81,3.298-1.491,6.637-1.969,10c-0.486,3.355-0.827,6.75-0.77,10.154c0.859-3.298,1.661-6.572,2.464-9.846
						c0.819-3.274,1.58-6.548,2.423-9.806c0.802-3.258,1.677-6.507,2.569-9.749c0.908-3.242,1.856-6.459,2.934-9.7
						C130.689,208.288,129.247,211.424,128.023,214.609z M123.217,211.74c-1.451,1.823-2.731,3.768-3.906,5.77
						c-1.135,2.026-2.172,4.117-2.966,6.297c-0.818,2.164-1.442,4.417-1.661,6.734l3.233-6.062c1.102-1.985,2.188-3.971,3.331-5.924
						c1.102-1.977,2.269-3.922,3.404-5.908c1.143-1.969,2.293-3.947,3.347-6.029C126.216,208.166,124.652,209.909,123.217,211.74z
						 M132.357,267.004l1.691-0.976c0.495-5.592,0.871-13.112,1.268-18.711C134.433,253.143,133.176,261.169,132.357,267.004z"/>
				</g>
			</g>
			<g id="Top_00000088832055913662519850000015000269275569174455_">
				<g>
					<path id="Hair_00000001626442113992008850000015366881792372740030_" style="fill:#263238;" d="M125.067,70.738
						c-8.777,2.551-15.904,15.499-15.544,27.841c0.36,12.342-0.279,18.201-1.525,21.495c-1.247,3.293-3.907,5.976-3.907,5.976
						s6.153-2.879,7.35-11.359c0,0-1.188,10.745-4.25,15.522c0,0,3.217,2.592,10.097,4.105c0,0,1.76-6.07,2.028-9.77
						c0.708,3.285,0.043,10.172,0.043,10.172s14.787,3.739,26.078,1.02c11.291-2.719,21.62-7.798,21.62-7.798l-2.049-9.547
						c0,0,2.781,5.948,3.298,6.768l4.919-3.103c0,0-3.932-6.56-7.051-15.177c-3.119-8.618-4.403-20.737-4.403-20.737L125.067,70.738
						z"/>
				</g>
				<g id="Arm_00000175291314232684274500000009965015627185072519_">
					<g>
						<path style="fill:#FFBDA7;" d="M252.975,127.483c-0.778,0.192-1.255,0.786-2.648,1.676c1.349-1.443,3.257-3.569,3.898-5.952
							c0.096-0.358,0.146-0.899,0.032-1.251c-0.108-0.332-0.565-1.225-1.15-1.265c0,0,0.566-1.143,1.075-2.122
							c0.416-0.799,1.214-2.698-0.137-2.967c-1.07-0.213-2.266,0.62-3.474,1.835c0.504-0.954,0.797-1.766,0.667-2.223
							c-0.39-1.372-1.478-1.822-3.746,0.259c-2.268,2.081-7.805,7.611-13.097,9.328c-0.952,0.309-2.776,1.175-3.771,0.794l0,0
							c-1.37-0.525-0.248-2.497,0.214-3.332c0.442-0.8,0.833-1.629,1.168-2.479c0.375-0.95,0.684-1.949,0.664-2.97
							c-0.02-1.021-0.413-2.076-1.224-2.698c-0.436-0.335-1.027-0.521-1.379-0.019c-1.402,1.997-2.873,3.944-4.285,5.933
							c-1.339,1.886-2.817,3.792-3.804,5.889c-1.136,2.413-1.705,5.44-3.393,8.823c-1.688,3.382-3.384,6.952-8.296,13.181
							c-2.711,3.438-8.595,11.092-8.595,11.092s-13.484-12.172-19.626-16.751c-13.022-9.711-15.845-12.671-21.521-13.97v29.013
							c0,0,19.315,14.299,28.556,20.939c7.859,5.646,13.611,8.36,16.743,7.647c4.88-1.111,15.276-19.248,23.203-37.256
							c0.781-1.774,2.846-5.359,7.449-6.865c1.803-0.59,3.782-1.391,4.95-1.839c1.414-0.541,3.835-1.91,5.099-2.744
							c2.671-1.764,2.767-1.55,6.078-5.809c0.408-0.526,2.006-2.827,1.68-3.407C254.031,127.48,253.519,127.348,252.975,127.483z"/>
						<path style="fill:#F0997A;" d="M250.326,129.158c-1.176,0.965-2.352,1.86-3.638,2.618c-1.249,0.813-2.595,1.474-3.875,2.304
							c1.469-0.408,2.853-1.051,4.169-1.83C248.26,131.424,249.485,130.441,250.326,129.158z"/>
						<g>
							<path style="fill:#F0997A;" d="M225.139,138.468c-0.048-0.288-0.069-0.582-0.045-0.874c0.045-0.561,0.214-1.131,0.428-1.65
								c0.427-1.035,1.115-1.979,1.959-2.713c1.827-1.589,4.658-2.251,6.958-1.412c0.065,0.023,0.182,0.228,0.054,0.234
								c-2.31,0.104-4.602,0.323-6.436,1.902c-1.517,1.306-2.166,3.375-2.299,5.326c-0.013,0.183-0.205,0.173-0.273,0.027
								C225.344,139.007,225.196,138.805,225.139,138.468z"/>
							<path style="fill:#F0997A;" d="M238.943,126.946c2.105-1.254,4.068-2.88,5.965-4.428c1.819-1.484,3.539-3.109,5.268-4.694
								c0.021-0.019,0.066,0.032,0.05,0.053c-1.535,2.062-3.348,3.795-5.353,5.402c-1.846,1.479-3.846,2.553-5.897,3.708
								C238.958,126.997,238.925,126.957,238.943,126.946z"/>
							<path style="fill:#F0997A;" d="M240.028,130.964c2.105-1.253,4.068-2.88,5.965-4.428c0.729-0.595,1.441-1.211,2.143-1.838
								c0.689-0.614,1.41-1.216,2.03-1.898c0.191-0.211,0.383-0.421,0.574-0.632c0.246-0.271,0.455-0.557,0.748-0.783
								c0.299-0.231,0.641-0.407,1.004-0.515c0.034-0.01,0.089-0.001,0.08,0.033c-0.431,0.204-0.803,0.515-1.127,0.865
								c-0.216,0.233-0.412,0.485-0.601,0.741c-0.171,0.232-0.354,0.428-0.54,0.646c-0.576,0.675-1.188,1.32-1.827,1.936
								c-0.803,0.775-1.648,1.506-2.519,2.204c-1.846,1.479-3.846,2.553-5.897,3.708
								C240.042,131.015,240.01,130.975,240.028,130.964z"/>
						</g>
					</g>
					<g>
						<path style="fill:#BA68C8;" d="M156.378,126.839c7.258,1.03,10.51,3.118,19.552,9.838c6.58,4.89,25.764,21.184,25.764,21.184
							l10.523-13.103c0,0,0.486,3.859,3.729,6.956c4.633,4.424,9.912,4.271,9.912,4.271s-5.12,11.605-9.246,19.129
							c-4.126,7.523-6.978,12.526-13.429,11.85c-3.88-0.407-12.277-5.692-22.478-12.893c-9.466-6.683-24.327-17.823-24.327-17.823
							V126.839z"/>
						<path style="opacity:0.15;" d="M156.378,126.839c7.258,1.03,10.51,3.118,19.552,9.838c6.58,4.89,25.764,21.184,25.764,21.184
							l10.523-13.103c0,0,0.486,3.859,3.729,6.956c4.633,4.424,9.912,4.271,9.912,4.271s-5.12,11.605-9.246,19.129
							c-4.126,7.523-6.978,12.526-13.429,11.85c-3.88-0.407-12.277-5.692-22.478-12.893c-9.466-6.683-24.327-17.823-24.327-17.823
							V126.839z"/>
						<path style="opacity:0.15;" d="M196.606,176.156c-0.238-6.711,0.831-14.049,5.087-18.296l-2.352-1.991
							C192.928,162.725,195.231,170.313,196.606,176.156z"/>
					</g>
				</g>
				<g id="Head_00000084499233183832619340000003345730201468396172_">
					<g>
						<path style="fill:#263238;" d="M163.918,78.227c-0.735-1.7-1.662-3.308-2.827-4.745c-3.046-3.756-7.59-6.13-12.333-7.071
							c-5.181-1.027-10.721-0.54-15.722,1.057c-4.133,1.319-6.628,2.004-10.666,5.237c-8.288,6.635-10.002,19.026-4.429,30.459
							c2.864,5.876,6.43,10.076,10.786,14.977l4.241-1.34c1.464-3.62,5.102-2.875,8.467-3.653c2.149-0.926,3.407-3.297,5.556-4.224
							c2.184-0.942,4.716-0.171,7.064-0.543c1.664-0.264,3.29-1.166,5.012-0.94c0.909,0.12,1.032,0.577,1.541-0.25
							c0.383-0.621,0.353-2.007,0.483-2.736c0.662-3.725,1.324-7.451,1.986-11.176c1.277,0.007,2.554-0.093,3.813-0.299
							c-0.323-3.428-0.648-6.87-1.469-10.214C165.042,81.219,164.551,79.689,163.918,78.227z"/>
					</g>
					<path style="fill:#FFBDA7;" d="M152.197,126.986c-1.705,0.155-2.753-1.142-2.772-1.786l-0.13-2.925
						c3.637,0.05,7.587-0.876,9.679-2.382c3.512-2.529,6.626-6.826,5.91-17.111c-0.383-5.492-1.37-7.55-1.341-9.679
						c0.081-5.869-0.25-12.044-6.119-14.961c-4.574-2.273-10.466-1.729-15.346-0.897c-1.72,0.293-5.731,0.659-6.522,2.635
						c-0.076,0.19-0.02,0.405,0.031,0.604c1.096,4.276-0.932,9.159-4.735,11.401c0.718,1.467,1.136,3.08,1.221,4.711
						c0.039,0.762,0.003,1.546-0.29,2.25c-0.293,0.704-0.88,1.321-1.624,1.485c-1.695,0.375-2.053-1.716-2.912-2.707
						c-0.828-0.955-1.892-1.712-3.101-2.099c-2.124-0.68-4.556-0.106-5.865,1.776c-2.097,3.013-2.109,7.7,1.791,12.028
						c3.798,4.217,8.13,1.602,8.196,0.76c0,0,0.599,13.398,0.654,15.645c0.055,2.246-0.018,3.935-2.822,4.816
						c-0.009,0.003,14.783,13.602,27.221,11.75C162.5,140.933,152.197,126.986,152.197,126.986z"/>
					<g>
						<g>
							<path id="XMLID_00000129890215523398344570000013482759392712994221_" style="fill:#263238;" d="M162.013,90.273
								l-4.876-1.398c0.338-1.372,1.704-2.171,3.051-1.784C161.534,87.477,162.351,88.902,162.013,90.273z"/>
							<path id="XMLID_00000178922554932104239330000010390322516378960006_" style="fill:#263238;" d="M138.65,91.21l4.733-1.996
								c-0.506-1.339-1.976-1.976-3.283-1.425C138.793,88.341,138.144,89.873,138.65,91.21z"/>
							<path style="fill:#263238;" d="M144.954,98.383c-0.126,1.609-1.304-1.134-2.913-1.26c-1.609-0.126-3.041,2.412-2.914,0.803
								c0.126-1.609,1.533-2.811,3.142-2.685C143.879,95.367,145.081,96.774,144.954,98.383z"/>
							<path style="fill:#263238;" d="M161.384,95.992c0.364,1.573-1.288-0.55-2.86-0.186c-1.573,0.364-2.471,3.076-2.834,1.503
								c-0.364-1.573,0.616-3.142,2.189-3.506C159.45,93.44,161.02,94.42,161.384,95.992z"/>
						</g>
						<g>
							<path id="XMLID_00000068638434723401406250000010994895182965874828_" style="fill:#B16668;" d="M153.913,109.51
								l-8.717-1.789c-0.589,2.408,0.885,4.76,3.293,5.254C150.896,113.468,153.325,111.917,153.913,109.51z"/>
							<path style="fill:#F28F8F;" d="M145.156,109.637c0.327,1.633,1.581,2.979,3.334,3.339c0.839,0.172,1.68,0.09,2.445-0.184
								C150.068,110.418,147.577,109.087,145.156,109.637z"/>
						</g>
						<g id="XMLID_00000152947011030580416620000005600716088829289146_">
							<path id="XMLID_00000122704278676930793390000000359055677763791535_" style="fill:#F0997A;" d="M149.294,122.275
								c-8.062-0.545-15.847-2.5-17.971-7.35c0,0,0.106,4.362,4.801,6.705c6.779,3.383,13.275,3.004,13.275,3.004L149.294,122.275z"
								/>
						</g>
						<g>
							<polygon style="fill:#F0997A;" points="157.124,102.957 150.547,106.363 148.76,93.536 							"/>
						</g>
						<path style="fill:#F28F8F;" d="M139.713,101.781c0.047-0.117,0.098-0.233,0.137-0.352c0.068-0.207,0.15-0.392,0.06-0.601
							c-0.089-0.208-0.449-0.221-0.592-0.076c-0.236,0.239-0.353,0.577-0.487,0.879c-0.124,0.281-0.253,0.56-0.379,0.84
							c-0.111,0.246-0.223,0.49-0.337,0.734c-0.062,0.133-0.128,0.265-0.173,0.406c-0.085,0.272,0.092,0.491,0.373,0.499
							c0.435,0.013,0.579-0.423,0.726-0.751c0.107-0.24,0.214-0.481,0.318-0.723C139.48,102.353,139.598,102.067,139.713,101.781z
							 M137.954,101.223c0.068-0.207,0.15-0.393,0.06-0.601c-0.09-0.208-0.449-0.22-0.592-0.076
							c-0.236,0.239-0.353,0.577-0.487,0.879c-0.124,0.281-0.253,0.56-0.38,0.84c-0.111,0.246-0.223,0.49-0.337,0.734
							c-0.062,0.133-0.128,0.265-0.173,0.406c-0.085,0.272,0.092,0.491,0.373,0.499c0.435,0.012,0.579-0.423,0.726-0.751
							c0.107-0.24,0.214-0.481,0.317-0.723c0.121-0.284,0.239-0.569,0.355-0.856C137.864,101.459,137.915,101.342,137.954,101.223z
							 M141.117,101.007c-0.236,0.239-0.353,0.577-0.487,0.879c-0.124,0.281-0.253,0.56-0.379,0.84
							c-0.111,0.246-0.223,0.49-0.337,0.734c-0.062,0.133-0.128,0.265-0.173,0.406c-0.085,0.272,0.092,0.491,0.373,0.499
							c0.435,0.013,0.579-0.423,0.726-0.751c0.107-0.24,0.214-0.481,0.317-0.723c0.121-0.284,0.239-0.57,0.355-0.856
							c0.047-0.117,0.098-0.233,0.137-0.352c0.068-0.207,0.15-0.393,0.06-0.601C141.62,100.874,141.26,100.862,141.117,101.007z"/>
						<path style="fill:#F28F8F;" d="M161.532,100.895c0.149,0.216,0.301,0.431,0.454,0.646c0.208,0.293,0.436,0.691,0.86,0.592
							c0.274-0.063,0.404-0.313,0.267-0.563c-0.071-0.129-0.162-0.245-0.249-0.364c-0.16-0.217-0.318-0.434-0.476-0.653
							c-0.179-0.249-0.361-0.497-0.538-0.748c-0.191-0.27-0.373-0.578-0.651-0.766c-0.169-0.114-0.519-0.03-0.565,0.191
							c-0.047,0.223,0.07,0.388,0.178,0.578c0.062,0.109,0.135,0.213,0.204,0.318C161.185,100.384,161.357,100.641,161.532,100.895z
							 M162.833,99.549c0.17,0.258,0.342,0.515,0.517,0.769c0.149,0.216,0.301,0.431,0.454,0.646
							c0.209,0.293,0.436,0.691,0.86,0.592c0.274-0.063,0.404-0.313,0.267-0.563c-0.071-0.129-0.162-0.245-0.25-0.364
							c-0.16-0.217-0.319-0.434-0.476-0.653c-0.179-0.25-0.361-0.497-0.538-0.748c-0.191-0.27-0.373-0.578-0.651-0.766
							c-0.169-0.114-0.519-0.03-0.565,0.191c-0.047,0.223,0.07,0.388,0.178,0.578C162.691,99.341,162.764,99.445,162.833,99.549z
							 M158.92,99.836c-0.047,0.222,0.07,0.388,0.178,0.577c0.062,0.109,0.135,0.213,0.204,0.318
							c0.17,0.258,0.342,0.515,0.517,0.769c0.149,0.216,0.301,0.431,0.454,0.646c0.208,0.293,0.436,0.691,0.86,0.592
							c0.274-0.063,0.404-0.313,0.267-0.563c-0.071-0.129-0.162-0.245-0.249-0.364c-0.16-0.217-0.319-0.434-0.476-0.653
							c-0.179-0.249-0.361-0.497-0.538-0.748c-0.191-0.27-0.373-0.578-0.651-0.766C159.317,99.531,158.967,99.615,158.92,99.836z"/>
					</g>
					<path style="fill:#263238;" d="M136.375,94.246c2.342-0.301,4.657-0.806,6.912-1.506c0.197-0.061,0.404-0.131,0.537-0.289
						c0.139-0.165,0.169-0.394,0.191-0.608c0.335-3.315,0.118-6.686-0.639-9.93c1.465,3.202,2.615,6.547,3.431,9.972
						c1.552-0.148,3.101-0.322,4.647-0.522c0.186-0.024,0.384-0.053,0.526-0.175c0.184-0.157,0.225-0.422,0.249-0.663
						c0.253-2.59-0.126-5.196-0.504-7.771c1.189,2.386,2.052,4.935,2.558,7.553c3.302,0.092,6.605,0.138,9.908,0.137
						c-0.579-4.265-1.284-8.77-4.043-12.074c-2.707-3.241-6.985-4.771-11.173-5.314c-4.096-0.531-8.536-0.164-11.881,2.258
						c-0.894,0.647-1.686,1.424-2.473,2.197c-0.4,0.393-1.092,0.837-1.178,1.412c-0.07,0.471,0.382,1.331,0.509,1.787
						c0.414,1.483,0.781,2.979,1.099,4.485C135.682,88.18,136.125,91.205,136.375,94.246z"/>
					<g>
						<g>
							<path style="fill:#455A64;" d="M124.922,95.426l-6.217-1.027c0,0-0.87-6.471,0.227-12.711
								c0.84-4.776,4.174-9.718,7.445-11.809c2.372-1.511,4.968-2.384,7.453-2.695c-1.083,0.507-1.552,0.652-3.484,2.161
								c-1.267,1.076-4.146,3.681-5.636,9.702C123.094,85.577,124.922,95.426,124.922,95.426z"/>
						</g>
						<g>
							<g>
								<path style="fill:#37474F;" d="M131.611,107.461c1.414-5.318-0.556-12.812-4.391-16.705
									c-1.129-1.146-2.316-1.894-3.528-2.223c-0.89-0.242-1.743-0.24-2.531-0.022c-0.458,0.127-2.308,0.621-2.778,0.751
									c-1.889,0.525-3.401,2.299-4.123,5.014c-1.414,5.318,0.556,12.812,4.391,16.705c1.129,1.146,2.316,1.894,3.528,2.223
									c0.896,0.243,1.754,0.24,2.547,0.017c0.453-0.127,2.279-0.615,2.744-0.742C129.367,111.962,130.886,110.185,131.611,107.461
									z"/>
								<path style="fill:#263238;" d="M122.179,113.204c-1.212-0.329-2.399-1.077-3.528-2.223
									c-3.835-3.893-5.804-11.387-4.391-16.705c1.025-3.856,3.644-5.815,6.671-4.993c1.212,0.329,2.398,1.077,3.527,2.223
									c3.835,3.893,5.805,11.386,4.391,16.705C127.824,112.067,125.206,114.027,122.179,113.204z"/>
							</g>
							<g>
								<path style="fill:#F0F0F0;" d="M128.262,108.051c1.365-5.137-0.53-12.348-4.234-16.108c-1.853-1.881-3.807-2.54-5.469-2.087
									c-0.229,0.062-1.145,0.311-1.374,0.373c-1.663,0.45-3.033,2.011-3.717,4.581c-1.365,5.137,0.53,12.349,4.234,16.108
									c1.852,1.88,3.806,2.539,5.467,2.087c0.23-0.063,1.151-0.312,1.381-0.375C126.211,112.179,127.579,110.618,128.262,108.051z
									"/>
								<path style="fill:#E0E0E0;" d="M122.647,92.317c3.704,3.76,5.599,10.972,4.234,16.108c-1.365,5.137-5.475,6.253-9.179,2.493
									c-3.704-3.76-5.599-10.972-4.234-16.108C114.834,89.674,118.943,88.557,122.647,92.317z"/>
							</g>
							<g>
								<path style="fill:#BA68C8;" d="M126.881,108.426c1.365-5.137-0.53-12.349-4.234-16.108c-1.85-1.878-3.8-2.537-5.46-2.089
									c-0.465,0.126-1.315,0.418-1.779,0.545c-1.659,0.452-3.026,2.013-3.708,4.578c-1.366,5.136,0.53,12.348,4.234,16.108
									c1.849,1.877,3.799,2.537,5.458,2.089c0.465-0.126,1.314-0.419,1.777-0.544C124.83,112.554,126.199,110.993,126.881,108.426
									z"/>
								<path style="opacity:0.15;fill:#FFFFFF;" d="M120.879,92.859c3.704,3.76,5.6,10.972,4.234,16.108
									c-1.366,5.137-5.475,6.253-9.179,2.493c-3.704-3.76-5.599-10.972-4.234-16.108
									C113.066,90.215,117.175,89.099,120.879,92.859z"/>
							</g>
							<g>
								<path style="fill:#263238;" d="M118.714,97.716c1.946,1.975,2.941,5.763,2.224,8.461c-0.717,2.698-2.876,3.284-4.821,1.309
									c-1.945-1.975-2.941-5.763-2.224-8.461C114.609,96.327,116.768,95.741,118.714,97.716z"/>
								<g>
									<path style="fill:#455A64;" d="M120.333,100.828l-3.132,1.829l-1.57-5.977c0.871-0.24,1.898,0.107,2.869,1.093
										C119.276,98.565,119.904,99.644,120.333,100.828z"/>
									<path style="fill:#37474F;" d="M120.724,106.236c-0.358,1.348-1.078,2.169-1.95,2.402l-1.573-5.981l3.132-1.829
										C120.968,102.603,121.155,104.616,120.724,106.236z"/>
									<path style="fill:#455A64;" d="M118.774,108.638c-0.874,0.239-1.898-0.106-2.872-1.093c-0.78-0.79-1.404-1.871-1.829-3.058
										l3.129-1.83L118.774,108.638z"/>
									<path style="fill:#37474F;" d="M117.201,102.657l-3.129,1.83c-0.638-1.775-0.823-3.786-0.393-5.402
										c0.359-1.351,1.078-2.169,1.951-2.405L117.201,102.657z"/>
								</g>
							</g>
						</g>
					</g>
				</g>
				<g id="Chest_00000039850373778145928680000006376563309124052398_">
					<g>
						<path style="fill:#FFFFFF;" d="M177.209,185.034c-0.178-3.484-0.299-8.438,0.084-12.877c0,0,5.308-5.505,5.31-12.608
							c0.002-7.448-3.264-12.535-11.06-19.916c-8-7.574-14.686-11.523-14.686-11.523l-4.655-0.866c0,0,1.312,8.192,0.93,13.08
							c-10.534-3.693-20.113-7.566-27.589-10.05l-10.968,3.88c0,0-5.396,11.141-2.906,21.915c1.348,5.832,4.028,15.708,6.203,23.542
							c2.107,7.588,1.367,15.681-2.083,22.761c-0.316,0.647-0.63,1.295-0.94,1.935c-2.935,6.065-6.816,17.218-6.816,17.218
							s17.068,7.647,45.106,4.246c28.038-3.401,28.796-15.629,28.796-15.629l-3.671-17.118
							C177.699,190.391,177.346,187.723,177.209,185.034z"/>
						<path style="fill:#E0E0E0;" d="M130.576,172.381c0,0,2.928,8.973,13.874,9.857c10.012,0.808,14.927-7.191,14.927-7.191
							s-1.692,11.411-15.232,9.933C130.624,183.505,130.576,172.381,130.576,172.381z"/>
					</g>
					<g>
						<path style="fill:#BA68C8;" d="M128.919,125.733c0,0,10.147,23.074,13.954,34.214c3.807,11.141,2.403,20.22,1.911,40.664
							c-0.379,15.743-1.189,39.501-1.189,39.501s-29.804,0.711-39.461-12.219c2.133-7.9,9.078-26.395,10.858-31.45
							c1.781-5.055,0.645-9.416-2.978-20.813c-3.623-11.397-8.984-17.501-9.16-26.029c-0.176-8.528,6.141-13.673,8.255-15.226
							C122.501,130.872,128.445,128.42,128.919,125.733z"/>
						<path style="opacity:0.05;" d="M128.919,125.733c0,0,10.147,23.074,13.954,34.214c3.807,11.141,2.403,20.22,1.911,40.664
							c-0.379,15.743-1.189,39.501-1.189,39.501s-29.804,0.711-39.461-12.219c2.133-7.9,9.078-26.395,10.858-31.45
							c1.781-5.055,0.645-9.416-2.978-20.813c-3.623-11.397-8.984-17.501-9.16-26.029c-0.176-8.528,6.141-13.673,8.255-15.226
							C122.501,130.872,128.445,128.42,128.919,125.733z"/>
						<path style="fill:#BA68C8;" d="M151.068,127.122c0,0,20.503,19.613,22.681,39.685c2.179,20.072,4.585,62.521,4.585,62.521
							s2.829-0.837,4.863-3.908c-0.595-11.298-3.863-45.522-3.168-49.695c0.695-4.172,10.19-13.962,0.645-27.055
							c-9.545-13.093-24.296-21.83-24.296-21.83l-6.979-1.608C149.614,126.369,150.364,126.82,151.068,127.122z"/>
						<path style="opacity:0.05;" d="M151.068,127.122c0,0,20.503,19.613,22.681,39.685c2.179,20.072,4.585,62.521,4.585,62.521
							s2.829-0.837,4.863-3.908c-0.595-11.298-3.863-45.522-3.168-49.695c0.695-4.172,10.19-13.962,0.645-27.055
							c-9.545-13.093-24.296-21.83-24.296-21.83l-6.979-1.608C149.614,126.369,150.364,126.82,151.068,127.122z"/>
						<path style="opacity:0.15;" d="M159.453,131.484c1.328,1.108,2.648,2.227,3.931,3.386c2.571,2.313,5.128,4.642,7.604,7.061
							c1.229,1.22,2.457,2.438,3.649,3.702c0.601,0.628,1.189,1.267,1.764,1.934c0.554,0.652,1.201,1.363,1.512,2.343
							c0.304,0.937,0.314,1.869,0.269,2.769c-0.038,0.907-0.209,1.782-0.393,2.647c-0.367,1.619-0.871,3.174-1.48,4.715
							c1.396,1.664,2.741,3.345,3.622,5.454c0.109,0.279,0.197,0.588,0.248,0.902c0.018,0.321,0.042,0.657,0.01,0.933
							c-0.026,0.586-0.104,1.144-0.168,1.709c-0.154,1.12-0.33,2.23-0.525,3.335c-0.77,4.423-1.735,8.799-2.789,13.156
							c0.697-4.426,1.408-8.849,2.032-13.273c0.152-1.106,0.285-2.214,0.395-3.318c0.042-0.55,0.096-1.104,0.1-1.638
							c0.023-0.545-0.031-0.959-0.237-1.453c-0.821-1.922-2.277-3.701-3.703-5.337l-0.222-0.255l0.124-0.317
							c0.613-1.564,1.122-3.211,1.472-4.855c0.171-0.824,0.301-1.655,0.351-2.474c0.055-0.815,0.043-1.645-0.187-2.359
							c-0.195-0.685-0.718-1.314-1.271-1.971c-0.545-0.647-1.118-1.287-1.703-1.914c-1.163-1.263-2.371-2.493-3.579-3.721
							c-2.415-2.458-4.847-4.907-7.333-7.3c-2.487-2.391-4.941-4.821-7.579-7.053C156.79,129.273,158.122,130.38,159.453,131.484z"
							/>
						<path style="opacity:0.15;" d="M128.835,158.517l-0.101-2.74l-0.202-5.481c-0.219-7.309-0.417-13.321-0.478-20.647
							c0.553,7.302,0.957,13.323,1.352,20.643l0.258,5.491l0.129,2.746l0.033,0.677c0.006,0.172,0.033,0.341,0.078,0.511
							c0.1,0.337,0.289,0.663,0.524,0.964c0.985,1.203,2.465,1.974,3.891,2.659c1.451,0.665,2.977,1.201,4.494,1.613l0.524,0.142
							l-0.172,0.573c-0.673,2.245-1.296,4.54-1.736,6.849c-0.106,0.577-0.205,1.157-0.266,1.729c-0.07,0.561-0.096,1.176,0,1.589
							l0.033,0.149l0.095,0.199l1.33,2.782c1.009,2.123,2.04,4.232,3.024,6.372c0,0-2.524-3.926-3.609-6.003l-0.81-1.56l-0.405-0.78
							l-0.304-0.585l-0.092-0.281c-0.193-0.746-0.141-1.369-0.096-1.993c0.043-0.626,0.139-1.229,0.244-1.829
							c0.396-2.199,0.939-4.325,1.538-6.441c-1.413-0.388-2.793-0.852-4.154-1.453c-1.508-0.696-3.042-1.482-4.266-2.984
							c-0.294-0.386-0.561-0.838-0.713-1.375c-0.071-0.272-0.114-0.552-0.118-0.841L128.835,158.517z"/>
					</g>
				</g>
				<g id="Arm_4_">
					<path style="fill:#F0997A;" d="M154.139,157.478c3.412-3.578,5.189-5.039,6.922-5.864c1.734-0.825,7.673-4.571,10.019-5.598
						c1.488-0.651,2.538,1.713,0.848,3.75c-1.301,1.569-4.971,3.958-6.547,5.206c-1.576,1.248-4.284,5.974-4.284,5.974
						L154.139,157.478z"/>
					<path style="fill:#FFBDA7;" d="M95.998,147.814c2.469-8.914,5.639-10.272,14.827-12.953c10.282,7.1,6.399,27.555,6.399,27.555
						l-0.823,20.939c0,0,22.332-7.214,24.688-9.353c2.356-2.139,8.151-10.97,10.141-13.658c2.709-3.658,4.386-3.514,6.073-3.547
						c5.525-0.108,6.785,0.145,8.048,0.675c1.264,0.531,1.404,1.919,1.404,1.919c1.461-0.064,3.595-0.474,4.271,1.83
						c0.446,1.52,0.405,1.868,0.405,1.868s0.523-0.036,1.021,0.375c1.425,1.177,0.196,6.298-0.904,7.683
						c-0.772,0.972-2.052,1.295-3.796,1.354c-1.483,0.05-1.06-1.539-1.06-1.539l-2.007,0.465
						c-3.853,3.857-3.025,10.063-8.586,12.408c-1.174,0.495-3.694,0.887-6.842,2.576c-11.761,6.31-30.047,22.487-40.997,25.333
						c-10.689,2.778-11.36-3.055-12.659-9.67C94.441,196.173,93.536,156.703,95.998,147.814z"/>
					<path style="fill:#F0997A;" d="M116.479,181.004l-0.076,2.351c-4.722,2.111-9.411,9.617-10.137,12.518
						C106.459,191.436,108.18,184.801,116.479,181.004z"/>
					<path style="fill:#BA68C8;" d="M111.111,134.375c0,0-1.542,0.419-4.522,1.421c-2.98,1.002-7.297,2.294-9.735,8.081
						c-2.438,5.787-2.289,8.07-2.703,17.332c-0.414,9.263-0.208,30.597,0.682,38.405c0.89,7.808,2.353,11.26,4.556,12.516
						c2.203,1.257,6.947,1.736,13.274-1.502c6.327-3.238,24.789-14.523,24.789-14.523s-2.526,0.589-4.621-6.815
						c-2.095-7.403-1.031-11.445-1.031-11.445l-13.435,3.796l0.988-20.092C119.353,161.551,121.122,139.544,111.111,134.375z"/>
					<path style="opacity:0.15;" d="M111.111,134.375c0,0-1.542,0.419-4.522,1.421c-2.98,1.002-7.297,2.294-9.735,8.081
						c-2.438,5.787-2.289,8.07-2.703,17.332c-0.414,9.263-0.208,30.597,0.682,38.405c0.89,7.808,2.353,11.26,4.556,12.516
						c2.203,1.257,6.947,1.736,13.274-1.502c6.327-3.238,24.789-14.523,24.789-14.523s-2.526,0.589-4.621-6.815
						c-2.095-7.403-1.031-11.445-1.031-11.445l-13.435,3.796l0.988-20.092C119.353,161.551,121.122,139.544,111.111,134.375z"/>
					<path style="opacity:0.15;" d="M118.366,181.643c-5.201,2.015-11.843,6.843-13.285,12.463
						c0.225-8.885,9.089-14.106,13.428-15.358L118.366,181.643z"/>
					<g>
						<path style="fill:#F0997A;" d="M166.756,159.391l-6.618-0.204l6.333-0.66C166.621,158.812,166.718,159.1,166.756,159.391z"/>
						<path style="fill:#F0997A;" d="M171.432,163.09l-7.527,0.297l7.39-1.153C171.372,162.495,171.413,162.784,171.432,163.09z"/>
						<path style="fill:#F0997A;" d="M170.055,167.361c-0.3,0.172-0.615,0.322-0.935,0.451c-0.765,0.272-2.537,0.608-2.537,0.608
							s0.033,0.535-0.675,1.572c-0.379,0.554-1.225,1.436-1.225,1.436l2.008-0.465c0,0,0.324-0.897,1.884-1.553
							c0.307-0.116,0.689-0.106,1.02,0.014c0.331,0.141,0.641,0.375,0.886,0.675c-0.18-0.339-0.439-0.662-0.805-0.853
							c-0.248-0.129-0.53-0.185-0.814-0.166l0.267-0.975c0.369-0.155,0.722-0.335,1.039-0.577c0.363-0.262,0.686-0.612,0.845-1.029
							C170.778,166.878,170.418,167.134,170.055,167.361z"/>
					</g>
				</g>
				<g>
					<path d="M164.855,102.408c0,0,2.881,1.253,5.165,3.113c2.284,1.86,2.043,4.636,0.833,6.289l-1.899-0.614
						c0,0,1.272-2.16,0.248-3.518c-1.024-1.358-4.216-2.691-4.216-2.691C164.968,104.141,164.915,103.276,164.855,102.408z"/>
					<path style="fill:#BA68C8;" d="M170.191,110.452c-1.485-0.954-2.358-0.059-3.79,2.48c-1.432,2.539-0.754,3.366,0.537,4.055
						c1.291,0.689,2.436-0.074,3.532-2.187C171.703,112.424,171.792,111.48,170.191,110.452z"/>
					<path style="opacity:0.1;" d="M170.191,110.452c-1.485-0.954-2.358-0.059-3.79,2.48c-1.432,2.539-0.754,3.366,0.537,4.055
						c1.292,0.689,2.436-0.074,3.533-2.187C171.703,112.424,171.792,111.48,170.191,110.452z"/>
				</g>
			</g>
		</g>
	</g>
</g>
</svg>
